<?xml version="1.0" standalone="no"?>
<!DOCTYPE svg PUBLIC "-//W3C//DTD SVG 20010904//EN"
 "http://www.w3.org/TR/2001/REC-SVG-20010904/DTD/svg10.dtd">
<svg version="1.0" xmlns="http://www.w3.org/2000/svg"
 width="1040.000000pt" height="1040.000000pt" viewBox="0 0 1040.000000 1040.000000"
 preserveAspectRatio="xMidYMid meet">
<metadata>
Created by potrace 1.11, written by Peter Selinger 2001-2013
</metadata>
<g transform="translate(0.000000,1040.000000) scale(0.100000,-0.100000)"
fill="#000000" stroke="none">
<path d="M9558 10225 c-15 -8 -29 -24 -33 -34 -6 -21 -8 -151 -1 -191 2 -14 4
-31 5 -38 2 -20 65 -46 95 -38 41 10 76 106 52 144 -3 6 -2 13 4 17 6 4 8 10
5 15 -3 5 -7 30 -9 56 -6 75 -55 103 -118 69z"/>
<path d="M3929 9802 c-9 -32 -8 -44 6 -71 14 -29 15 -35 2 -55 -8 -12 -30 -27
-49 -32 -36 -11 -194 -11 -288 0 -97 11 -233 31 -280 41 -52 11 -159 17 -182
12 -14 -4 -29 -17 -35 -29 -12 -28 1 -154 19 -175 20 -25 55 -34 86 -22 15 6
38 12 52 14 26 4 78 12 120 20 14 2 54 7 90 10 36 3 85 7 110 9 25 3 99 7 165
11 426 21 462 32 422 127 -25 59 -133 150 -204 172 -19 6 -23 2 -34 -32z"/>
<path d="M9558 9745 c-15 -8 -29 -24 -33 -34 -6 -21 -8 -151 -1 -191 2 -14 4
-31 5 -38 0 -7 16 -20 35 -29 29 -14 39 -14 66 -3 33 14 49 35 49 66 0 10 0
46 1 79 1 88 -7 128 -31 148 -26 21 -55 21 -91 2z"/>
<path d="M2874 9605 c-39 -13 -161 -69 -270 -123 -178 -89 -295 -140 -359
-158 -54 -15 -138 -25 -172 -20 -46 6 -54 -5 -33 -44 14 -27 -8 -78 -51 -115
-19 -17 -71 -49 -115 -73 -89 -47 -134 -84 -134 -109 0 -20 55 -14 115 13 22
10 42 18 45 19 3 1 45 20 94 43 49 23 90 42 93 42 2 0 22 9 46 19 96 44 158
71 162 71 2 0 16 5 32 12 15 6 30 12 33 13 3 1 18 7 34 14 131 54 173 70 186
73 8 2 17 5 20 8 3 3 55 25 115 49 159 64 307 136 329 160 22 24 16 54 -18 93
-34 38 -69 41 -152 13z"/>
<path d="M4067 9464 c-1 -1 -58 -5 -127 -9 -240 -14 -322 -21 -476 -40 -28 -4
-68 -8 -90 -10 -51 -5 -111 -13 -152 -20 -17 -3 -49 -8 -69 -11 -122 -15 -203
-35 -203 -50 0 -10 32 -12 148 -8 81 2 163 6 182 8 100 12 272 20 410 20 137
0 159 -3 193 -21 44 -24 87 -24 234 1 51 9 113 -10 113 -34 0 -22 33 -60 52
-60 8 0 18 -3 22 -7 9 -10 28 -12 126 -18 79 -4 179 -24 225 -44 11 -5 61 -29
110 -54 144 -72 233 -91 257 -53 13 19 9 56 -12 95 -28 55 -47 72 -83 70 -32
-1 -125 8 -168 16 -13 3 -41 7 -64 11 -63 9 -150 30 -172 42 -11 6 -23 9 -26
6 -3 -3 -13 6 -22 19 -15 24 -15 28 5 67 26 52 22 66 -27 79 -29 8 -377 12
-386 5z"/>
<path d="M9558 9265 c-35 -19 -40 -37 -40 -151 0 -69 5 -101 16 -119 17 -25
64 -40 95 -30 23 7 53 49 52 73 0 9 0 40 0 67 0 28 0 55 0 60 0 95 -53 138
-123 100z"/>
<path d="M3528 9245 c-1 -2 -43 -6 -93 -10 -49 -3 -103 -8 -119 -11 -28 -5
-77 -9 -211 -19 -33 -3 -89 -9 -125 -14 -36 -5 -92 -12 -125 -15 -124 -12
-143 -25 -96 -67 66 -60 197 -86 331 -65 l45 7 -40 -21 c-22 -11 -46 -26 -53
-34 -15 -15 -7 -42 16 -51 58 -24 220 -24 402 -1 19 3 60 7 91 11 31 3 66 8
78 10 11 2 21 1 21 -3 0 -4 -53 -24 -117 -44 -211 -66 -294 -82 -403 -77 -126
6 -189 4 -199 -6 -6 -6 -13 -27 -15 -48 -3 -21 -8 -42 -11 -48 -8 -12 -48 -7
-89 10 -62 25 -296 286 -319 355 -4 11 -104 14 -154 4 -47 -9 -122 -49 -144
-77 -14 -17 -18 -33 -13 -56 7 -40 -8 -53 -79 -65 -113 -18 -210 -54 -410
-152 -135 -66 -291 -159 -326 -194 -13 -13 -27 -24 -30 -24 -4 0 -20 -21 -36
-46 -34 -53 -65 -77 -107 -80 -36 -3 -58 -20 -58 -45 0 -25 19 -24 93 7 104
44 146 65 302 149 251 135 470 235 515 235 10 0 22 5 25 10 3 6 13 10 21 10
17 0 107 56 145 91 15 13 39 43 54 67 32 49 45 42 46 -25 1 -92 -41 -157 -119
-184 -19 -6 -46 -17 -60 -25 -15 -8 -30 -14 -34 -14 -3 0 -39 -15 -80 -33 -40
-19 -102 -47 -138 -63 -131 -58 -427 -212 -518 -268 -98 -61 -137 -94 -146
-124 -8 -23 -47 -42 -98 -48 -91 -11 -176 -65 -197 -125 -12 -34 -11 -35 38
-9 31 15 42 17 55 7 14 -10 15 -18 7 -38 -5 -14 -15 -32 -23 -40 -18 -19 -149
-214 -182 -271 -58 -101 20 -37 224 182 171 183 208 218 340 324 47 37 93 74
103 82 9 8 21 14 26 14 5 0 11 4 13 8 5 12 172 122 186 122 7 0 12 4 12 9 0
10 214 118 310 156 36 14 83 28 105 31 l40 6 -45 -46 c-25 -25 -49 -45 -53
-46 -4 0 -17 -8 -27 -18 -58 -54 -409 -245 -470 -256 -66 -11 -93 -32 -104
-78 -9 -39 -45 -71 -125 -113 -77 -41 -102 -76 -81 -115 15 -28 0 -47 -51 -60
-27 -8 -63 -35 -127 -98 -118 -116 -176 -184 -337 -396 -27 -36 -69 -125 -63
-132 18 -17 100 62 556 533 117 122 226 226 243 233 26 11 33 11 47 -3 14 -15
14 -21 3 -54 -19 -54 -69 -111 -292 -333 -207 -207 -352 -372 -491 -560 -81
-110 -141 -216 -132 -232 17 -27 154 107 326 317 98 120 212 248 298 336 87
88 118 112 180 141 105 49 130 54 149 29 16 -19 30 -25 62 -22 8 0 44 30 80
65 79 78 91 84 157 84 33 1 70 9 97 22 72 35 231 220 248 288 4 18 1 22 -19
22 -14 0 -39 -7 -57 -16 -39 -20 -190 -116 -197 -125 -10 -13 -257 -175 -290
-191 -66 -30 -80 -32 -80 -8 0 25 48 98 92 139 17 16 57 37 87 46 82 25 171
83 276 178 33 30 117 84 160 102 27 11 53 14 82 10 44 -6 51 -2 59 42 7 38 36
62 88 72 80 15 148 75 132 116 -4 12 -16 15 -46 12 -50 -5 -68 13 -72 73 -2
38 -7 46 -25 48 -13 2 -23 0 -23 -5 0 -12 -42 -14 -55 -3 -21 18 -9 54 25 78
34 23 56 27 125 23 47 -2 63 -14 67 -49 3 -23 8 -27 41 -30 21 -2 62 2 90 8
74 16 137 23 137 15 0 -3 -27 -33 -60 -65 -65 -63 -74 -86 -36 -96 21 -5 185
1 296 11 19 1 71 6 115 10 44 3 96 8 115 10 247 25 610 20 895 -11 39 -4 80
-7 93 -7 12 1 22 -3 22 -9 0 -5 4 -7 9 -4 8 5 61 0 181 -20 82 -13 237 -46
397 -86 137 -33 175 -40 185 -30 35 35 -69 112 -151 112 -77 0 -87 21 -36 76
34 36 36 37 92 32 36 -4 83 -18 123 -38 141 -69 220 -89 257 -64 22 14 32 57
15 68 -4 2 -28 7 -52 11 -48 6 -141 30 -175 44 -11 5 -67 30 -125 56 -194 88
-311 135 -390 157 -55 14 -113 29 -135 34 -214 43 -277 49 -507 49 -104 0
-188 1 -188 3 0 8 190 85 243 98 111 27 205 32 297 14 94 -18 71 -11 215 -64
55 -21 105 -38 110 -40 10 -3 58 -21 85 -33 8 -3 17 -7 20 -8 3 -1 23 -9 45
-19 22 -10 47 -19 55 -21 8 -2 47 -15 85 -29 123 -44 272 -80 325 -77 71 3 26
47 -120 118 -118 57 -142 67 -152 65 -5 -1 -8 3 -8 8 0 5 -3 9 -7 8 -5 -1 -19
3 -33 9 -14 6 -52 22 -85 36 -58 24 -169 61 -190 62 -5 1 -26 6 -45 12 -41 14
-256 70 -291 77 -13 2 -53 12 -89 21 -72 19 -81 21 -135 29 -20 4 -40 8 -44
10 -6 4 -58 14 -106 20 -11 2 -34 6 -50 10 -65 14 -201 23 -211 13 -3 -3 8
-18 25 -33 40 -35 47 -60 25 -85 -34 -38 -76 -17 -114 56 -23 44 -54 74 -92
88 -9 3 -18 4 -20 2z m772 -469 c49 -11 265 -58 290 -62 63 -12 160 -46 191
-67 69 -46 38 -134 -53 -151 -19 -3 -33 3 -54 25 -42 44 -163 77 -349 95 -129
12 -167 15 -265 19 -58 2 -107 5 -110 5 -18 4 -391 1 -515 -5 -237 -11 -401
-8 -430 8 -25 12 -25 14 -8 29 18 16 85 34 158 44 22 3 51 7 65 9 118 16 149
19 265 30 44 4 96 9 115 10 19 2 96 7 170 10 74 4 136 8 138 10 5 4 368 -4
392 -9z m-1920 -303 c0 -28 -197 -174 -370 -275 -332 -194 -500 -239 -333 -88
72 65 430 293 463 295 3 0 11 4 18 9 8 4 49 23 93 40 83 34 129 41 129 19z"/>
<path d="M9558 8788 c-33 -28 -46 -58 -38 -93 4 -19 6 -36 3 -39 -12 -11 -3
-119 11 -141 18 -28 74 -42 103 -26 29 15 52 68 44 100 -4 14 -6 37 -4 51 6
49 3 101 -8 121 -18 35 -82 50 -111 27z"/>
<path d="M3378 8464 c-2 -1 -39 -5 -84 -8 -44 -4 -94 -9 -110 -12 -16 -3 -42
-7 -59 -9 -51 -7 -108 -15 -145 -21 -19 -3 -48 -7 -65 -10 -16 -2 -39 -6 -50
-8 -11 -3 -25 -5 -31 -5 -5 -1 -21 -45 -33 -98 -34 -144 -58 -181 -101 -165
-49 18 -194 -33 -266 -95 -103 -87 -139 -133 -163 -206 -18 -55 -9 -82 29 -85
69 -5 130 62 113 126 -9 34 -5 63 10 79 7 6 59 24 117 39 222 57 315 120 334
226 9 52 62 93 161 124 44 14 89 27 100 29 139 22 283 22 405 0 31 -5 62 14
58 37 -4 33 -61 57 -146 61 -39 2 -73 3 -74 1z"/>
<path d="M3820 8412 c0 -10 58 -37 102 -47 13 -3 61 -14 108 -25 47 -11 98
-22 113 -25 16 -2 40 -6 55 -9 15 -3 52 -8 82 -11 30 -3 69 -8 85 -11 17 -3
42 -7 58 -10 97 -16 272 -58 312 -74 11 -4 40 -15 65 -24 25 -8 59 -21 75 -27
17 -7 37 -13 44 -15 32 -6 311 -151 391 -202 169 -108 317 -238 306 -268 -7
-19 -39 -6 -150 63 -128 79 -135 83 -142 82 -4 0 -10 3 -13 8 -8 10 -30 23
-160 88 -141 71 -289 121 -531 176 -180 41 -230 51 -257 52 -7 0 -13 3 -13 6
0 3 -10 6 -22 7 -13 0 -41 4 -63 8 -22 4 -56 9 -75 12 -19 2 -42 6 -50 9 -8 2
-35 7 -60 10 -25 3 -56 7 -70 10 -82 15 -321 41 -465 50 -79 5 -336 5 -380 0
-89 -10 -151 -51 -130 -85 9 -15 93 -10 177 11 95 24 175 28 163 9 -18 -29
-99 -64 -218 -96 -73 -20 -139 -38 -147 -41 -8 -3 -22 -7 -31 -9 -9 -2 -29 -8
-45 -14 -16 -6 -30 -11 -31 -11 -1 0 -26 -9 -55 -20 -29 -11 -60 -22 -68 -24
-8 -1 -55 -21 -103 -44 -93 -42 -148 -89 -141 -119 11 -47 -159 -169 -356
-255 -58 -25 -123 -42 -200 -53 -25 -3 -62 -15 -82 -27 -36 -20 -44 -31 -53
-76 -4 -20 -56 -105 -91 -149 -132 -164 -330 -365 -443 -452 -18 -14 -46 -36
-62 -48 -16 -13 -29 -21 -29 -17 0 4 -6 2 -14 -4 -10 -9 -16 -8 -26 4 -24 29
22 96 162 238 151 152 229 235 308 327 30 35 62 71 70 79 8 9 41 50 72 91 32
41 62 80 67 86 17 21 47 89 46 104 -1 8 -3 21 -3 28 -1 6 -13 12 -26 12 -16 0
-46 -24 -98 -79 -104 -110 -144 -126 -195 -79 -15 14 -28 18 -45 13 -62 -19
-201 -149 -358 -335 -30 -36 -57 -67 -60 -70 -3 -3 -34 -39 -70 -80 -195 -226
-358 -397 -449 -470 -49 -40 -49 -65 3 -78 23 -7 40 -4 71 11 39 20 213 187
272 262 229 293 445 557 526 642 40 42 54 50 76 46 51 -9 48 -38 -12 -128 -22
-33 -44 -61 -49 -63 -4 -2 -8 -10 -8 -17 0 -7 -3 -15 -7 -17 -5 -1 -46 -48
-92 -103 -46 -55 -91 -107 -100 -115 -9 -9 -43 -47 -76 -85 -33 -39 -62 -72
-65 -75 -22 -21 -125 -149 -218 -270 -62 -80 -116 -149 -120 -155 -4 -5 -38
-55 -74 -110 -83 -126 -133 -221 -136 -262 -3 -28 0 -33 18 -33 26 0 70 46 70
74 0 38 33 61 100 72 50 8 69 33 68 91 -1 76 108 248 211 334 54 44 77 52 96
33 14 -14 13 -19 -2 -45 -10 -16 -29 -37 -42 -47 -36 -25 -91 -83 -106 -112
-7 -14 -16 -45 -19 -70 -3 -25 -10 -60 -16 -79 -11 -39 -70 -141 -82 -141 -4
0 -8 -5 -8 -12 0 -6 -6 -19 -14 -27 -18 -20 -126 -229 -150 -291 -46 -116 -76
-214 -81 -257 -12 -122 -14 -263 -4 -263 16 0 115 108 160 174 34 51 39 64 33
95 -12 68 -8 113 20 221 12 46 61 166 70 172 6 4 7 8 3 8 -5 0 27 69 71 153
213 411 448 710 751 957 23 19 53 44 65 55 12 11 35 29 50 40 15 11 40 30 54
43 15 12 32 26 37 30 6 4 37 27 70 52 33 25 64 48 70 53 118 88 329 227 345
227 5 0 10 3 10 8 0 4 10 12 23 18 171 86 185 91 216 74 48 -25 -1 -130 -61
-130 -13 0 -34 -6 -48 -13 -14 -8 -53 -28 -87 -46 -35 -18 -63 -37 -63 -42 0
-5 -4 -9 -10 -9 -8 0 -54 -30 -150 -98 -49 -35 -266 -210 -293 -237 -49 -50
-89 -75 -102 -65 -9 7 -32 -11 -81 -63 -68 -72 -155 -170 -210 -237 -16 -19
-33 -40 -39 -46 -5 -6 -26 -30 -45 -54 -19 -24 -51 -62 -70 -85 -19 -23 -51
-61 -70 -85 -19 -24 -55 -69 -81 -99 -25 -31 -65 -83 -90 -116 -60 -82 -62
-84 -79 -103 -57 -65 -134 -207 -124 -230 11 -25 6 -41 -34 -107 -20 -33 -38
-67 -40 -75 -13 -60 -3 -90 31 -90 25 0 63 36 93 88 23 40 53 51 71 26 34 -46
55 -65 71 -62 20 4 78 108 88 156 3 18 10 35 15 38 5 3 9 15 9 28 0 12 3 26 7
30 4 3 8 13 9 20 1 7 5 28 9 45 13 61 -20 32 -69 -61 -50 -96 -83 -141 -97
-133 -12 8 -3 94 21 185 20 81 95 240 112 240 4 0 8 5 8 10 0 6 4 16 10 23 5
7 39 50 76 97 37 47 79 98 93 115 49 56 416 421 474 470 32 28 69 60 83 72 14
13 57 48 97 80 40 31 74 60 77 63 11 13 258 188 290 206 19 10 37 22 40 26 10
13 155 81 234 109 44 16 89 38 99 48 21 20 20 21 -47 76 -47 39 -48 71 -1 120
46 49 70 43 155 -40 113 -111 174 -108 184 9 7 96 133 137 433 141 166 2 185
4 216 24 45 28 76 96 53 119 -24 25 -67 19 -292 -36 -200 -50 -246 -57 -273
-43 -48 26 -5 119 55 122 13 1 29 3 34 4 6 1 14 3 18 4 20 3 49 38 58 71 11
41 32 48 78 26 19 -9 49 -18 67 -20 19 -3 50 -7 69 -10 53 -9 119 -16 180 -20
76 -5 180 -16 210 -21 14 -3 41 -7 60 -10 19 -3 46 -7 60 -10 14 -3 41 -7 60
-10 19 -3 43 -8 52 -11 17 -5 43 -11 93 -20 35 -6 368 -102 405 -116 8 -4 49
-18 90 -33 75 -27 282 -111 310 -126 8 -4 61 -31 117 -58 117 -57 228 -123
322 -189 63 -44 140 -75 218 -86 21 -4 50 -9 63 -11 42 -9 210 -18 210 -12 0
37 -157 233 -285 355 -82 79 -127 111 -177 126 -27 8 -23 58 6 86 26 23 70 30
88 12 18 -18 48 -2 48 27 0 30 -27 60 -100 108 -63 43 -204 121 -230 128 -3 1
-27 12 -55 24 -77 35 -181 71 -216 73 -85 7 -10 -54 185 -152 105 -52 132 -70
140 -92 8 -23 6 -32 -14 -53 -36 -39 -80 -33 -196 24 -114 56 -122 59 -188 65
-56 6 -72 17 -91 62 -17 40 -32 49 -120 63 -38 7 -81 14 -95 16 -14 3 -70 14
-125 25 -55 11 -113 23 -130 26 -16 2 -37 7 -45 9 -8 2 -31 7 -50 10 -19 3
-53 10 -75 15 -22 5 -58 11 -80 14 -23 4 -52 9 -65 11 -14 3 -45 8 -70 11 -25
3 -56 7 -70 10 -61 11 -280 16 -280 6z m-656 -445 c16 -12 14 -15 -21 -43 -40
-32 -97 -65 -123 -71 -66 -15 -129 -4 -131 24 -1 7 -2 20 -3 29 -2 24 42 53
94 63 69 14 164 13 184 -2z"/>
<path d="M5428 8400 c-32 -26 -17 -35 58 -34 73 0 99 15 63 35 -39 20 -95 20
-121 -1z"/>
<path d="M9558 8308 c-33 -28 -46 -58 -38 -93 4 -19 6 -36 3 -39 -11 -11 -3
-119 11 -141 17 -25 64 -40 96 -30 36 12 68 108 46 143 -3 6 -2 13 4 17 6 4 8
10 5 15 -3 5 -7 30 -9 56 -3 35 -10 53 -26 66 -26 21 -69 24 -92 6z"/>
<path d="M3906 7973 c-30 -16 -26 -33 12 -55 180 -103 175 -99 158 -117 -15
-14 -52 -16 -314 -16 -264 0 -301 -2 -329 -18 -23 -12 -34 -27 -39 -52 -3 -19
-9 -37 -13 -40 -21 -12 -65 -12 -96 1 -55 23 -68 19 -60 -16 10 -43 -26 -78
-165 -158 -85 -49 -85 -66 -1 -69 100 -2 100 -9 3 -96 -33 -30 -41 -49 -19
-46 26 3 57 -1 57 -9 0 -8 -63 -73 -115 -117 -73 -63 -408 -296 -517 -359 -50
-29 -103 -48 -112 -39 -3 3 0 15 6 27 12 23 115 163 136 184 14 15 16 42 4 42
-16 0 -182 -114 -231 -160 -9 -8 -37 -31 -61 -51 -25 -20 -58 -49 -75 -64 -38
-33 -132 -105 -139 -105 -9 0 -70 -63 -93 -96 -12 -17 -24 -50 -27 -73 -5 -42
-73 -189 -102 -222 -8 -8 -14 -20 -14 -26 0 -6 -4 -13 -9 -15 -11 -4 -110
-156 -142 -218 -19 -37 -39 -89 -92 -245 -2 -5 -9 -21 -14 -35 -72 -170 -104
-283 -85 -302 13 -13 47 25 76 87 24 51 60 138 69 165 2 8 6 20 8 25 8 29 176
356 216 423 198 332 362 537 446 560 30 9 39 8 43 -3 8 -19 -20 -74 -60 -121
-246 -286 -375 -490 -345 -545 38 -72 159 14 184 131 8 35 71 164 96 195 8 10
37 41 64 69 81 83 144 102 167 50 22 -49 -15 -100 -78 -108 -61 -9 -91 -29
-97 -67 -7 -38 9 -69 36 -69 41 0 101 54 243 220 92 107 142 153 269 248 28
21 108 63 151 80 73 29 204 48 229 34 15 -8 13 -12 -17 -35 -19 -15 -66 -40
-104 -57 -111 -49 -160 -78 -233 -135 -42 -33 -203 -196 -246 -250 -22 -27
-45 -56 -52 -63 -6 -7 -38 -49 -70 -95 -31 -45 -61 -83 -65 -85 -4 -2 -8 -10
-8 -18 0 -8 -3 -14 -7 -14 -5 0 -13 -10 -19 -23 -6 -12 -36 -62 -66 -112 -66
-107 -195 -359 -202 -395 -1 -3 -16 -39 -34 -82 -17 -42 -33 -85 -35 -95 -1
-10 -6 -23 -9 -29 -4 -6 -9 -21 -12 -35 -3 -13 -12 -49 -20 -79 -28 -102 -55
-280 -43 -280 5 0 66 141 72 169 6 25 75 231 97 287 30 79 95 124 145 101 36
-16 90 1 129 40 21 21 62 87 96 157 118 240 124 246 123 113 0 -92 -2 -105
-23 -127 -28 -30 -97 -170 -152 -310 -49 -123 -128 -362 -135 -410 -10 -60
-16 -98 -20 -117 -6 -28 -55 -54 -86 -47 -66 15 -99 3 -124 -46 -15 -30 -49
-159 -61 -235 -9 -57 -11 -66 -14 -80 -1 -5 -2 -13 -1 -17 0 -3 -6 -43 -14
-87 -33 -188 -27 -266 20 -266 36 0 57 56 60 163 5 126 13 199 28 242 6 19 12
37 12 40 22 86 93 132 180 116 31 -6 34 -9 24 -27 -5 -11 -20 -25 -33 -30 -52
-24 -109 -195 -110 -332 0 -54 15 -74 59 -78 31 -3 65 -25 65 -41 0 -5 -13 -7
-29 -3 -36 8 -44 -11 -42 -92 2 -81 3 -87 14 -101 11 -14 78 -45 120 -56 32
-8 53 -47 60 -113 6 -50 -1 -62 -40 -65 -54 -4 -65 17 -49 89 7 32 -26 49 -50
26 -35 -35 4 -256 54 -306 11 -11 33 -21 48 -21 20 -2 28 -8 31 -24 10 -66 48
-207 73 -267 52 -131 232 -448 269 -475 4 -3 18 -21 31 -40 45 -65 206 -234
305 -321 101 -88 345 -245 359 -231 3 3 6 0 6 -6 0 -7 3 -11 8 -10 4 1 21 -4
37 -11 103 -44 207 -64 330 -65 366 -1 583 93 701 303 76 133 141 190 226 196
43 3 93 36 113 75 16 32 29 90 19 90 -9 0 -60 -40 -108 -84 -44 -41 -62 -45
-71 -15 -11 34 -7 105 6 127 17 27 37 32 91 21 109 -21 138 -3 143 86 4 96 30
165 89 244 36 48 41 88 21 175 -9 42 -18 106 -21 143 -16 210 -26 254 -89 379
-24 46 -40 85 -36 87 3 2 21 3 40 3 33 -1 34 -3 53 -66 29 -96 64 -167 92
-185 55 -36 57 6 11 180 -15 55 -28 102 -30 103 -2 2 8 25 21 52 13 26 24 53
24 58 0 26 16 18 18 -9 4 -49 32 -121 72 -184 45 -70 80 -170 95 -270 3 -16 7
-41 10 -55 28 -121 36 -361 15 -424 -13 -39 -26 -47 -59 -35 -19 8 -22 14 -17
37 16 71 18 137 3 157 -13 16 -19 18 -40 8 -35 -16 -49 -71 -52 -198 -3 -96
-10 -198 -21 -315 -15 -150 -19 -210 -15 -269 1 -24 18 -26 62 -7 12 5 19 -1
27 -23 6 -16 9 -31 7 -33 -2 -2 -6 -35 -9 -73 -6 -78 -15 -167 -22 -205 -2
-14 -7 -41 -10 -60 -8 -47 -12 -65 -14 -65 -1 0 -4 -13 -6 -30 -3 -16 -14 -57
-25 -89 -10 -33 -19 -64 -19 -69 0 -17 -78 -172 -98 -194 -28 -32 -37 -29 -14
5 45 62 99 194 107 259 2 12 6 26 9 31 21 34 25 196 6 272 -2 12 -31 -67 -51
-142 -12 -46 -26 -89 -32 -95 -5 -7 -7 -13 -3 -13 11 0 -26 -64 -50 -87 -24
-22 -25 -22 -143 -9 -42 5 -60 -11 -66 -59 -6 -42 -44 -135 -56 -135 -4 0 -10
-8 -13 -18 -4 -10 -35 -49 -70 -85 -34 -37 -61 -68 -59 -70 2 -2 21 1 43 6 52
14 86 -1 98 -45 11 -40 9 -43 -15 -27 -21 12 -27 10 -126 -51 -57 -35 -92 -46
-102 -30 -9 14 14 70 28 70 6 0 8 3 4 6 -3 4 4 15 16 26 22 19 22 19 -13 2
-18 -9 -40 -22 -46 -28 -7 -6 -28 -22 -47 -35 -18 -14 -44 -39 -57 -55 -23
-31 -24 -31 -119 -32 -113 -1 -191 -7 -191 -14 0 -3 -17 -6 -38 -7 -89 -3
-306 -47 -338 -68 -26 -17 -30 -35 -13 -68 26 -49 50 -61 125 -59 49 0 207 37
229 52 6 4 39 17 75 30 53 20 111 47 231 108 4 1 6 -8 6 -20 0 -13 4 -32 8
-43 22 -49 121 -106 191 -110 25 -1 49 -6 54 -11 10 -10 7 -16 -53 -124 -26
-48 -26 -50 -7 -50 34 0 249 118 258 142 2 4 8 8 14 8 22 0 303 222 380 300
59 59 68 82 54 140 -17 70 -28 84 -70 82 -43 -2 -44 5 -11 67 42 80 65 145 90
256 3 11 13 56 24 100 11 44 22 96 25 115 3 19 8 46 11 60 3 14 8 41 10 60 2
19 6 46 9 60 25 120 25 379 0 468 -4 13 -14 22 -25 22 -11 0 -28 9 -39 20 -45
45 -9 107 54 97 25 -4 41 -1 55 11 21 19 55 108 46 123 -4 5 -2 9 3 9 10 0 9
367 -1 425 -3 17 -9 46 -12 65 -4 19 -6 43 -6 52 0 10 -5 20 -10 23 -5 4 -7
10 -4 15 6 10 -26 110 -56 174 -12 27 -44 70 -71 95 -46 44 -61 82 -38 96 20
12 80 -17 123 -58 58 -56 82 -97 106 -187 26 -95 29 -123 46 -397 4 -76 23
-126 51 -137 53 -20 62 85 29 332 -11 82 -55 233 -86 294 -21 41 -62 93 -121
153 -107 107 -162 186 -161 229 1 42 45 139 51 111 13 -63 65 -140 122 -180
46 -32 70 -27 70 12 0 28 -43 103 -59 103 -11 0 -31 51 -27 70 1 8 7 33 11 55
13 57 13 55 -7 114 -22 66 -22 75 -2 126 l15 41 33 -31 c18 -17 38 -40 43 -50
22 -41 36 -189 23 -229 -4 -11 -1 -44 7 -75 7 -31 16 -74 19 -96 4 -22 10 -47
15 -56 4 -9 10 -27 13 -40 11 -64 97 -380 115 -429 44 -115 56 -107 57 37 0
115 -7 164 -43 298 -41 154 -51 197 -48 214 2 9 4 19 4 24 1 4 6 7 12 7 21 0
51 -45 76 -114 14 -39 61 -208 69 -251 4 -21 12 -59 19 -85 2 -8 4 -15 5 -15
1 0 3 -9 5 -19 2 -11 6 -30 9 -41 15 -60 43 -298 51 -428 2 -38 7 -87 11 -110
4 -23 8 -53 10 -67 1 -14 3 -25 4 -25 1 0 3 -8 5 -17 10 -54 40 -120 64 -145
43 -43 51 -96 47 -298 -3 -99 -7 -196 -10 -215 -3 -19 -8 -57 -11 -85 -3 -27
-8 -57 -10 -65 -2 -8 -7 -35 -10 -60 -4 -24 -8 -47 -10 -50 -2 -3 -6 -21 -9
-40 -3 -19 -17 -75 -31 -125 -15 -49 -28 -97 -30 -105 -2 -8 -13 -42 -24 -74
-12 -33 -19 -61 -17 -63 2 -2 20 18 42 44 21 27 48 58 60 69 27 26 78 116 93
164 19 64 33 167 35 257 1 29 3 53 6 53 3 0 6 53 6 118 2 159 12 627 14 627 5
0 4 348 -2 367 -3 13 -7 19 -8 13 -1 -5 -3 -19 -6 -30 -2 -11 -6 -36 -9 -55
-2 -19 -6 -44 -9 -55 -2 -11 -7 -47 -11 -80 -3 -32 -8 -62 -10 -65 -2 -4 -6
-17 -8 -31 -10 -50 -28 -108 -36 -114 -5 -2 -12 3 -16 13 -8 18 -9 22 -19 97
-4 28 -9 57 -11 65 -3 8 -7 42 -10 75 -3 33 -8 76 -10 95 -20 155 -23 326 -7
342 16 16 26 5 87 -87 30 -46 59 -87 65 -90 9 -5 16 33 11 59 -1 6 -5 30 -8
55 -9 84 -21 176 -28 219 -2 13 -6 53 -9 90 l-6 67 22 -45 c12 -25 39 -83 61
-129 53 -112 92 -151 151 -151 55 0 76 -24 76 -86 0 -31 -7 -51 -26 -74 -15
-17 -29 -29 -32 -26 -2 3 -13 1 -23 -5 -51 -27 -80 -204 -80 -474 0 -312 33
-491 94 -514 16 -6 4 -9 -42 -9 -66 -1 -101 -18 -101 -51 0 -23 29 -62 43 -59
46 8 77 -36 83 -120 7 -90 -6 -95 -61 -24 -27 34 -50 60 -52 58 -3 -2 2 -26
10 -53 29 -96 7 -201 -68 -331 -17 -32 -52 -91 -76 -132 -24 -42 -46 -82 -47
-90 -13 -53 -13 -78 -1 -88 74 -61 75 -62 57 -72 -67 -40 -103 -94 -110 -165
-6 -51 -25 -81 -60 -96 -35 -14 -99 -5 -114 16 -20 27 -3 56 83 143 56 56 83
91 83 106 0 24 -22 56 -75 112 -98 103 -100 130 -24 321 36 92 70 224 85 328
1 11 3 20 4 20 1 0 3 11 4 25 2 14 6 57 11 95 4 39 9 84 11 100 2 17 4 79 4
139 1 112 -12 176 -35 176 -20 0 -69 -111 -81 -185 -2 -11 -6 -92 -9 -180 -6
-175 -10 -221 -30 -335 -11 -60 -118 -370 -128 -370 -5 0 -7 6 -4 14 3 8 -1
20 -9 26 -22 19 -68 -5 -92 -49 -27 -48 -28 -87 -2 -101 16 -8 26 -5 55 21 19
17 35 27 35 22 0 -5 -3 -13 -7 -17 -5 -4 -8 -11 -9 -14 0 -4 -3 -14 -7 -22
-33 -85 -62 -190 -53 -190 3 0 24 26 47 57 54 74 89 110 122 122 49 19 60 -35
22 -110 -17 -33 -94 -149 -106 -159 -17 -15 -110 -180 -114 -203 -7 -34 3 -34
90 -5 66 21 80 19 87 -12 4 -18 -56 -124 -112 -198 -22 -29 -36 -52 -32 -52
25 0 270 232 408 387 173 192 354 423 413 526 23 41 38 56 59 60 15 3 41 18
56 34 29 28 72 112 80 155 2 13 9 36 15 51 17 44 22 85 11 92 -11 7 -91 -98
-122 -160 -12 -22 -24 -42 -28 -45 -3 -3 -13 -20 -21 -38 -11 -25 -20 -32 -42
-32 -32 0 -72 -37 -81 -76 -24 -95 -106 -202 -179 -233 -43 -19 -45 -19 -50
-1 -8 32 87 200 189 333 69 88 92 133 89 172 -2 17 -6 67 -10 112 -7 80 -7 82
14 76 44 -11 67 5 94 65 14 31 33 84 42 117 17 62 17 65 30 130 5 22 10 47 11
55 2 8 6 40 10 70 3 30 8 57 9 60 7 12 19 139 18 195 -1 56 -10 180 -13 180 0
0 -2 20 -4 45 -2 25 -6 59 -9 75 -4 17 -9 46 -12 65 -6 34 -15 91 -20 120 -2
8 -10 45 -19 81 -8 37 -17 78 -20 90 -2 13 -14 58 -25 99 -12 41 -24 84 -26
95 -4 18 -10 36 -31 90 -4 11 -7 23 -6 26 2 14 -75 153 -90 163 -14 8 -21 6
-32 -9 -11 -16 -14 -46 -11 -135 1 -63 5 -125 8 -137 3 -13 3 -23 -1 -23 -4 0
-21 41 -36 90 -16 50 -33 90 -38 90 -5 0 -7 4 -4 9 3 5 -30 47 -73 94 -89 95
-86 88 -96 272 -2 55 -7 110 -9 123 -14 67 -51 184 -86 273 -22 56 -42 111
-44 123 -3 11 -11 44 -19 71 -23 79 -30 128 -17 123 13 -4 34 -42 83 -148 132
-286 241 -488 305 -567 39 -49 52 -53 52 -20 0 24 -45 164 -73 227 -8 19 -22
51 -30 70 -77 183 -223 469 -291 573 -10 15 -16 27 -13 27 12 0 159 -235 196
-315 13 -27 41 -87 62 -132 22 -46 39 -85 39 -88 0 -3 8 -24 19 -48 16 -35 47
-116 114 -292 7 -16 12 -32 13 -35 0 -3 5 -16 11 -30 17 -42 119 -350 129
-390 2 -8 10 -44 19 -80 16 -66 18 -75 30 -165 4 -27 10 -66 15 -85 12 -48 23
-110 24 -137 1 -13 3 -23 6 -23 3 0 6 -8 7 -17 2 -27 10 -68 38 -188 15 -60
28 -120 31 -132 2 -12 9 -34 14 -48 5 -14 7 -25 4 -25 -2 0 2 -13 10 -29 9
-16 13 -30 11 -33 -3 -2 8 -19 23 -37 26 -32 29 -33 45 -17 9 10 18 32 18 49
4 80 4 133 0 141 -2 5 -5 25 -7 45 -2 20 -20 101 -40 180 -20 80 -38 152 -39
160 -2 9 -4 16 -5 16 -1 0 -3 7 -5 15 -11 40 -26 96 -60 215 -20 72 -38 137
-40 145 -2 8 -4 15 -5 15 -1 0 -3 7 -5 16 -1 9 -14 57 -28 105 -24 84 -42 160
-52 212 -2 13 -6 31 -9 40 -6 18 -7 26 -31 141 -25 126 -23 168 9 142 15 -13
35 -60 86 -206 76 -215 148 -321 212 -311 16 2 32 7 35 10 3 3 -12 23 -34 44
-48 47 -108 169 -163 332 -73 217 -115 295 -155 287 -33 -6 -105 74 -184 203
-36 58 -103 164 -151 235 -104 158 -145 229 -158 278 -9 34 -9 36 7 27 19 -9
66 -60 116 -123 17 -21 37 -46 46 -55 27 -30 229 -300 229 -308 0 -4 6 -12 13
-18 37 -30 320 -455 378 -567 43 -82 64 -103 102 -97 19 3 22 8 20 46 -2 23
-17 73 -35 110 -48 99 -130 247 -140 250 -4 2 -8 9 -8 17 0 7 -7 19 -16 26 -9
7 -43 59 -76 115 -59 101 -116 174 -137 174 -28 0 -105 99 -191 245 -72 124
-108 174 -154 218 -32 31 -45 37 -67 32 -31 -7 -37 -1 -45 51 -14 93 -85 195
-156 225 -35 14 -42 9 -40 -36 1 -37 4 -41 72 -110 43 -44 64 -94 48 -116 -7
-11 -11 -11 -15 -1 -2 6 -9 12 -14 12 -18 0 -149 126 -246 237 -70 80 -196
206 -240 240 -19 15 -40 23 -49 19 -13 -5 -11 -14 15 -63 39 -73 174 -253 278
-371 33 -37 30 -51 -10 -46 -12 1 -25 3 -29 3 -5 1 -8 5 -8 10 0 10 -35 87
-53 116 -13 21 -83 111 -104 133 -22 22 -16 -4 28 -134 l40 -121 -25 -38 c-14
-21 -26 -44 -26 -51 0 -15 -35 -54 -48 -54 -5 0 -9 18 -10 41 -4 105 -62 316
-101 368 -40 53 -65 -8 -64 -159 0 -69 4 -105 18 -185 5 -27 4 -28 -7 -10 -7
11 -13 25 -14 30 -1 6 -17 37 -36 71 -28 49 -32 63 -21 70 11 7 7 29 -23 121
-23 72 -34 121 -30 137 7 27 52 76 128 139 60 50 58 65 -30 182 -86 114 -238
267 -367 370 -28 21 -52 42 -55 46 -3 3 -32 21 -65 39 -60 32 -60 32 -172 26
-123 -6 -133 -2 -128 54 7 74 58 121 123 113 40 -4 165 -61 199 -90 12 -10 31
-25 43 -33 37 -25 73 -53 105 -82 17 -14 41 -36 55 -48 81 -70 321 -316 451
-465 80 -90 250 -254 297 -285 34 -22 48 -27 58 -19 28 23 -27 124 -133 247
-27 30 -52 60 -58 66 -5 7 -21 25 -35 40 -21 24 -22 27 -5 18 11 -6 34 -23 51
-39 17 -15 55 -48 85 -73 145 -121 378 -357 439 -444 8 -12 23 -30 33 -41 18
-19 138 -178 182 -241 78 -112 213 -262 256 -285 30 -16 43 14 23 53 -15 30
-86 138 -106 163 -5 6 -56 75 -113 155 -141 195 -190 295 -158 322 8 6 22 13
30 14 17 3 114 -89 133 -124 6 -13 18 -31 26 -40 7 -9 39 -51 69 -92 119 -159
278 -321 298 -301 12 12 -25 85 -94 190 -27 41 -49 78 -49 82 0 5 -3 9 -7 9
-5 0 -19 17 -33 38 -77 115 -218 277 -250 287 -21 7 -76 87 -120 176 -45 88
-68 119 -90 119 -22 0 -32 -28 -26 -75 7 -57 16 -80 45 -122 31 -44 51 -99 44
-120 -9 -25 -37 -14 -112 42 -7 5 -83 78 -168 160 -86 83 -160 155 -167 160
-28 25 -86 65 -86 60 0 -3 -12 1 -27 8 -28 14 -98 13 -117 -1 -15 -11 -81 -15
-106 -7 -11 3 -20 13 -20 21 0 23 -51 146 -67 162 -7 7 -13 18 -13 23 0 5 -45
56 -101 113 -119 123 -137 144 -167 199 -18 34 -20 43 -8 45 30 7 88 -40 311
-253 86 -82 142 -117 176 -109 65 17 97 15 137 -5 23 -11 45 -27 49 -34 9 -15
68 -90 93 -116 8 -9 33 -39 54 -66 22 -28 47 -57 56 -66 9 -9 26 -28 36 -41
28 -36 64 -54 74 -37 12 18 2 59 -26 106 -24 41 -132 183 -163 214 -9 9 -43
47 -76 85 -174 199 -542 544 -716 671 -131 97 -352 205 -484 237 -5 2 -17 6
-25 9 -20 7 -92 30 -105 33 -5 1 -37 10 -70 19 -77 22 -107 29 -265 61 -108
23 -290 30 -312 12 -27 -20 -12 -56 30 -73 51 -22 76 -26 192 -30 305 -12 620
-108 775 -236 56 -46 91 -66 126 -72 66 -11 142 -62 336 -224 175 -147 343
-316 343 -346 0 -33 -120 39 -280 168 -108 86 -111 89 -124 101 -27 25 -196
150 -245 182 -30 19 -76 40 -102 47 -48 13 -87 36 -146 86 -31 27 -110 67
-146 74 -9 2 -22 7 -27 10 -9 6 -17 8 -72 20 -129 28 -268 41 -268 26 0 -7 65
-40 90 -46 3 0 27 -11 54 -23 27 -12 50 -22 52 -22 5 0 170 -77 264 -123 198
-96 330 -189 330 -231 0 -26 -41 -19 -91 17 -106 75 -427 215 -719 314 -119
40 -166 49 -221 44 -21 -1 -40 -43 -28 -62 26 -41 -16 -70 -110 -77 -55 -3
-75 0 -109 17 -23 12 -43 27 -43 34 -1 6 -2 17 -4 22 -1 6 -3 16 -3 24 -2 14
-8 13 -177 -5 -92 -9 -166 -11 -171 -3 -2 4 7 20 21 35 14 15 25 37 25 50 0
22 -19 74 -30 84 -4 3 -16 34 -27 70 -20 62 -24 124 -10 147 7 11 68 29 134
39 21 3 54 9 73 14 19 5 60 12 90 16 30 3 66 7 80 9 166 23 404 23 480 0 11
-3 106 -19 120 -20 8 0 23 3 34 8 13 7 16 6 11 -3 -18 -29 58 24 78 55 39 61
105 73 202 35 17 -6 30 -10 30 -9 0 1 23 -5 50 -14 115 -37 136 -33 123 25
-16 71 -36 94 -117 131 -68 32 -98 44 -221 93 -74 29 -173 64 -194 69 -11 2
-48 14 -81 25 -66 23 -129 24 -169 3z m-816 -901 c0 -11 -64 -76 -145 -147
-37 -33 -73 -65 -79 -70 -36 -33 -224 -180 -276 -215 -113 -77 -198 -105 -201
-66 0 6 -2 19 -4 28 -4 23 35 81 57 84 23 3 128 56 128 65 0 4 8 9 18 12 9 2
89 56 177 118 242 173 325 221 325 191z m393 -115 c29 -36 91 -54 197 -56 103
-3 198 -9 225 -15 11 -2 40 -9 65 -15 25 -5 74 -23 110 -39 36 -17 78 -32 95
-33 27 -4 33 1 56 44 28 53 52 73 89 78 63 9 2 -104 -81 -150 -35 -20 -50 -23
-112 -18 -40 3 -101 12 -137 20 -65 14 -174 16 -240 3 -38 -8 -80 -31 -80 -45
0 -18 81 -36 245 -55 28 -3 59 -8 70 -10 11 -2 40 -7 65 -11 71 -11 77 -18 44
-49 -16 -14 -37 -29 -46 -32 -10 -3 -18 -15 -18 -28 0 -59 -110 -86 -245 -62
-16 3 -64 11 -106 19 -76 14 -249 12 -279 -3 -3 -1 -8 -2 -12 -1 -8 1 -141
-42 -185 -61 -16 -6 -30 -12 -33 -13 -13 -3 -98 -50 -122 -67 -16 -11 -28 -16
-28 -11 0 8 136 108 179 132 14 8 29 18 32 23 3 5 9 9 13 9 3 -1 23 6 44 15
57 24 165 40 256 37 289 -10 448 -9 463 2 13 10 9 14 -32 24 -123 31 -335 33
-525 5 -19 -2 -48 -6 -65 -8 -58 -7 -204 -46 -264 -70 -104 -42 -202 -119
-383 -298 -54 -53 -106 -99 -116 -102 -11 -4 -29 -26 -41 -49 -12 -24 -32 -55
-44 -70 -145 -173 -240 -329 -250 -408 -10 -79 -45 -103 -109 -75 -25 11 -16
46 49 185 44 95 112 213 126 219 4 2 7 8 7 12 0 5 32 53 70 108 39 54 70 103
70 107 0 11 67 92 118 143 94 93 263 216 395 287 78 42 197 90 197 79 0 -3 10
1 23 8 12 6 28 13 35 14 22 4 42 25 42 45 0 10 -13 34 -30 52 -17 20 -32 51
-36 73 -7 44 -17 54 -56 54 -37 0 -43 15 -17 39 37 34 97 49 197 47 88 -1 93
-2 115 -29z m855 -303 c46 -29 105 -60 131 -70 43 -15 47 -19 43 -43 -11 -61
-39 -61 -137 -1 -52 32 -129 65 -145 62 -3 0 -9 3 -15 8 -5 4 -27 11 -47 15
-47 9 -50 31 -9 74 27 29 31 30 62 19 19 -6 72 -35 117 -64z m232 -73 c0 -11
-31 -24 -39 -16 -3 3 1 10 9 15 19 12 30 12 30 1z m200 -90 c72 -50 137 -107
151 -133 7 -14 6 -16 -6 -12 -8 4 -15 10 -15 14 0 5 -44 41 -97 82 -54 40 -99
76 -101 81 -2 4 -9 7 -15 7 -7 0 -23 9 -37 21 l-25 20 40 -18 c22 -10 69 -38
105 -62z m-540 -83 c41 -63 226 -216 268 -223 34 -5 29 7 -26 63 -77 79 -159
144 -205 161 -40 16 -52 37 -14 27 12 -3 27 -6 34 -6 7 0 35 -22 62 -50 28
-27 58 -50 68 -51 10 0 29 -2 42 -3 14 -2 43 2 65 9 47 13 105 12 132 -3 14
-8 25 -6 45 5 41 24 90 10 146 -42 56 -52 82 -58 84 -17 1 15 1 32 0 37 -2 12
63 -56 107 -112 17 -23 32 -46 32 -52 0 -5 5 -11 11 -13 5 -2 13 -23 16 -46 7
-52 -13 -72 -70 -68 -21 1 -41 -2 -43 -6 -3 -5 -10 -5 -17 -1 -17 10 -134 5
-157 -7 -11 -6 -20 -17 -20 -25 0 -8 -2 -15 -5 -15 -17 0 -123 129 -150 183
-16 29 -17 41 -8 55 6 9 16 16 21 15 6 -1 16 4 22 12 16 19 21 75 7 75 -16 0
-48 -42 -54 -71 -4 -20 -14 -29 -44 -38 -21 -7 -39 -14 -39 -17 0 -6 57 -82
70 -94 51 -48 307 -411 393 -555 26 -45 118 -233 121 -247 8 -46 53 -157 81
-198 19 -27 30 -52 25 -55 -4 -3 -11 -16 -14 -30 -11 -44 -48 -137 -52 -132
-5 5 -83 270 -90 306 -3 13 -9 32 -15 43 -5 10 -7 18 -4 18 4 0 3 6 -2 13 -4
6 -8 18 -10 26 -15 103 -111 250 -293 451 -74 81 -198 250 -184 250 4 0 -1 9
-10 19 -18 20 -44 28 -106 33 -37 3 -62 20 -59 40 7 57 -25 93 -165 188 -121
81 -163 143 -120 175 26 18 105 1 124 -27z m-530 13 c87 -16 94 -18 166 -47
125 -50 371 -191 377 -216 3 -10 -1 -22 -7 -27 -15 -13 -51 -3 -125 33 -30 14
-60 26 -66 26 -6 0 -16 5 -22 11 -24 24 -236 103 -308 115 -95 17 -176 6 -303
-38 -48 -16 -97 -32 -109 -35 -13 -3 -23 -9 -23 -14 0 -5 -9 -9 -19 -9 -11 0
-21 -3 -23 -7 -1 -5 -22 -18 -45 -30 -35 -19 -58 -23 -132 -23 -50 0 -91 3
-91 6 0 7 90 94 132 129 66 55 153 102 204 111 15 3 43 8 63 12 56 12 270 14
331 3z m-690 -85 c0 -2 -8 -10 -17 -17 -16 -13 -17 -12 -4 4 13 16 21 21 21
13z m830 -142 c73 -28 169 -100 270 -203 106 -108 160 -168 160 -176 0 -4 7
-13 15 -21 20 -20 19 -16 -6 40 -49 111 35 74 191 -84 41 -41 85 -87 96 -102
33 -39 76 -116 71 -125 -3 -4 -38 -8 -77 -7 -72 1 -73 1 -101 39 -16 21 -29
35 -29 31 0 -4 9 -19 20 -34 14 -17 17 -28 10 -32 -11 -7 -90 -5 -94 2 -13 23
-89 112 -121 141 -296 283 -382 355 -487 408 -31 16 -59 33 -63 39 -15 24 -86
42 -190 49 l-110 7 45 14 c57 17 57 17 105 25 22 4 41 8 43 10 2 1 49 2 105 0
68 -2 117 -9 147 -21z m-205 -305 l0 -62 -63 -1 c-49 -1 -62 2 -63 14 -3 33 1
93 5 98 11 10 111 28 117 21 3 -5 5 -36 4 -70z m174 51 c47 -23 147 -119 185
-177 16 -24 26 -51 24 -65 -2 -19 -9 -23 -38 -22 -34 1 -138 44 -163 67 -6 7
-24 18 -39 24 -28 12 -28 14 -28 103 0 56 4 90 10 90 6 0 28 -9 49 -20z m1014
-23 c20 -21 91 -101 117 -133 14 -16 45 -59 69 -94 39 -59 40 -62 10 -29 -19
20 -45 50 -59 66 -14 16 -47 55 -75 87 -54 63 -91 116 -80 116 3 0 12 -6 18
-13z m-1192 -254 c4 -22 5 -119 1 -126 -2 -4 -9 -4 -15 2 -7 5 -35 17 -63 26
-42 13 -50 20 -48 38 1 12 3 32 3 45 1 20 6 22 61 22 33 0 61 -3 61 -7z m545
-29 c16 -19 34 -41 40 -47 6 -7 18 -24 28 -39 18 -28 18 -28 -5 -29 -78 -3
-159 -1 -173 4 -35 14 -9 130 31 140 39 10 52 6 79 -29z m-358 1 c60 -18 112
-58 112 -87 0 -18 -4 -20 -32 -14 -35 8 -54 12 -78 18 -20 4 -19 -21 2 -57 23
-38 22 -36 119 -255 102 -231 103 -235 39 -125 -65 111 -77 129 -162 236 l-68
87 0 106 c0 58 4 106 8 106 5 0 31 -7 60 -15z m-1263 -257 c-1 -51 -9 -120
-18 -153 -16 -63 -32 -145 -45 -230 -14 -102 -6 -495 13 -590 2 -11 7 -47 11
-80 3 -33 8 -78 11 -100 7 -66 5 -75 -21 -110 -22 -29 -90 -64 -101 -53 -6 6
-19 115 -20 161 0 20 -2 37 -5 37 -3 0 -6 19 -6 43 -1 23 -3 90 -4 150 -3 141
-35 232 -78 225 -34 -6 -19 25 38 79 53 49 60 60 54 83 -4 14 -8 43 -9 65 -1
37 1 57 20 168 22 130 79 307 117 363 37 54 44 44 43 -58z m1054 33 c23 -18
25 -25 26 -120 1 -56 -2 -104 -6 -106 -4 -3 -13 5 -22 18 -8 12 -34 43 -58 68
-41 42 -44 49 -43 95 1 27 2 52 3 57 2 15 77 6 100 -12z m1169 -56 c-3 -14 -1
-25 3 -25 5 0 9 6 10 13 0 6 10 -15 23 -48 13 -33 20 -64 16 -70 -9 -12 11
-114 41 -205 23 -72 90 -206 117 -236 20 -22 69 -144 63 -159 -2 -5 -4 -16 -4
-22 -1 -31 -19 -3 -87 140 -162 336 -200 435 -202 526 -1 37 -4 38 -28 9 -17
-22 -17 -22 -28 -2 -6 11 -12 33 -14 48 -3 25 2 31 32 42 54 19 63 18 58 -11z
m482 -65 c14 -7 23 -6 34 6 15 14 16 13 16 -7 0 -29 -33 -129 -42 -129 -5 0
-7 3 -6 8 0 4 -2 16 -6 27 -5 11 -14 36 -21 55 -7 19 -21 53 -30 75 l-16 40
26 -33 c15 -17 35 -37 45 -42z m374 15 c-1 -19 -7 -42 -12 -52 -15 -30 -7
-125 16 -184 11 -27 11 -54 0 -64 -9 -9 34 -160 63 -220 14 -32 87 -257 93
-290 9 -55 17 -90 22 -106 2 -9 7 -32 9 -50 3 -19 7 -45 10 -59 7 -34 12 -65
21 -130 4 -30 9 -64 10 -75 11 -69 13 -269 3 -286 -10 -19 -12 -20 -29 -4 -10
9 -21 30 -25 48 -4 18 -9 34 -10 37 -1 3 -5 32 -9 65 -4 33 -9 71 -11 85 -2
14 -6 50 -10 80 -5 49 -36 224 -51 290 -3 14 -7 36 -10 50 -6 30 -82 299 -91
320 -3 8 -7 20 -9 25 -6 25 -38 107 -70 182 l-35 82 58 145 c32 80 61 146 64
146 4 0 5 -16 3 -35z m-1830 -180 c14 -28 20 -67 22 -141 4 -154 20 -181 63
-104 12 22 26 42 32 46 23 14 58 -31 121 -157 37 -74 81 -149 97 -167 34 -37
68 -42 79 -11 7 17 11 13 31 -33 13 -29 48 -107 78 -173 65 -141 97 -294 108
-507 7 -147 -28 -143 -80 11 -32 92 -46 175 -50 290 -7 169 -25 266 -55 298
-10 11 -36 23 -58 27 -61 9 -114 70 -168 191 -70 157 -107 176 -98 51 2 -34 6
-72 9 -86 3 -14 8 -41 11 -60 4 -19 13 -60 21 -90 7 -30 16 -86 19 -125 11
-153 15 -175 47 -254 22 -54 49 -82 64 -67 10 10 9 115 -1 175 -15 86 -9 141
15 141 16 0 52 -111 64 -198 3 -20 8 -53 11 -72 8 -56 13 -101 19 -170 3 -36
8 -78 10 -95 25 -174 26 -631 2 -725 -34 -132 -31 -143 29 -111 46 25 58 19
39 -19 -27 -52 -12 -100 26 -80 37 20 48 89 53 335 6 283 26 343 144 426 48
33 61 58 66 131 3 43 16 82 16 49 0 -18 45 -31 116 -33 56 -2 67 -5 88 -29 25
-28 60 -89 52 -89 -3 0 -2 -11 3 -23 30 -80 35 -457 8 -627 -23 -144 -57 -233
-98 -258 -16 -10 -21 -8 -33 11 -17 26 -14 89 10 167 25 86 41 164 36 178 -9
26 -39 9 -85 -50 -26 -33 -53 -80 -59 -104 -14 -52 -23 -56 -26 -13 -2 23 14
62 59 143 73 130 100 184 104 205 2 9 4 16 5 16 7 0 6 42 -1 59 -20 43 -66 53
-195 44 -9 -1 -25 -15 -35 -32 -24 -38 -61 -155 -53 -167 3 -5 1 -9 -3 -9 -5
0 -10 -10 -11 -22 -2 -36 -10 -93 -12 -93 -6 0 -4 -208 3 -212 13 -8 7 -50
-10 -71 -44 -51 -53 -62 -53 -66 0 -12 -99 -178 -127 -213 -66 -82 -91 -45
-45 66 46 114 31 223 -42 290 -22 20 -30 23 -57 15 -53 -15 -91 -114 -55 -144
12 -9 22 -8 50 5 44 21 67 8 60 -32 -5 -28 -20 -43 -67 -69 -33 -18 -57 -5
-57 30 0 53 -36 51 -94 -6 -17 -15 -34 -28 -39 -28 -7 0 46 83 63 100 23 21
124 167 136 195 11 28 12 39 2 55 -27 43 -54 26 -132 -85 -71 -100 -127 -159
-183 -192 -50 -29 -125 -49 -168 -45 -16 1 -97 4 -180 6 -171 4 -192 7 -257
43 -58 32 -216 185 -349 339 -44 52 -168 228 -185 264 -9 19 -20 37 -24 40 -9
6 -98 183 -116 230 -7 19 -22 59 -34 88 l-20 53 57 -6 c32 -4 72 -8 88 -9 44
-2 52 -9 99 -104 59 -119 70 -156 57 -192 -6 -18 -6 -32 0 -35 5 -4 9 -1 9 4
0 21 48 10 91 -21 66 -47 174 -154 241 -237 60 -75 112 -164 101 -175 -3 -3 7
-10 23 -16 89 -34 437 36 564 113 45 27 62 47 111 130 33 54 59 104 59 112 0
8 5 15 10 15 6 0 10 7 10 16 0 9 10 33 23 53 36 58 43 71 93 171 49 100 65
169 44 195 -17 20 -76 10 -117 -21 -70 -53 -97 -51 -160 9 -36 34 -43 67 -15
67 10 0 26 6 36 13 20 14 24 95 12 227 -4 41 -9 93 -10 115 -11 134 -28 281
-41 345 -2 14 -7 41 -10 60 -3 19 -15 68 -27 110 -11 41 -21 80 -22 85 -2 6
-6 17 -9 25 -44 116 -47 132 -47 263 0 131 0 132 18 102 10 -16 26 -48 36 -70z
m-256 -10 c17 -19 43 -56 59 -82 27 -47 27 -48 28 -231 0 -101 -2 -185 -5
-187 -3 -2 -23 31 -44 73 -22 42 -48 87 -59 99 -18 20 -20 38 -21 192 0 94 2
171 5 171 4 0 21 -16 37 -35z m1918 -240 c16 -39 19 -95 4 -95 -18 0 38 -127
94 -212 37 -56 57 -222 35 -286 -24 -68 -81 -35 -93 54 -3 27 -22 105 -41 174
-20 69 -37 134 -40 145 -2 11 -11 41 -19 67 -13 44 -12 49 14 112 15 36 25 67
22 70 -3 4 -2 6 2 6 4 0 14 -16 22 -35z m-1942 -235 c10 -48 15 -72 20 -88 3
-9 8 -35 11 -57 3 -22 9 -56 13 -75 15 -65 8 -152 -15 -188 l-21 -33 0 78 c-1
81 -3 92 -19 133 -8 21 -9 83 -4 234 1 34 7 32 15 -4z m250 -90 c3 -25 5 -45
6 -45 13 0 14 -289 1 -367 -13 -78 -21 -204 -22 -343 -1 -107 -5 -118 -54
-151 -46 -31 -98 -42 -188 -41 l-82 2 -5 -48 c-3 -26 -3 -47 1 -47 16 0 18
-34 7 -109 -10 -64 -9 -82 1 -95 35 -42 120 -1 221 107 168 179 218 227 234
221 8 -3 13 -11 11 -17 -2 -7 -6 -29 -10 -50 -14 -97 -97 -285 -152 -344 -32
-33 -33 -34 -95 -28 -86 9 -144 9 -203 0 -169 -27 -248 11 -379 180 -26 33
-50 65 -55 71 -61 77 -142 210 -155 253 -9 30 -15 55 -13 57 3 3 39 7 55 5 7
0 23 -22 34 -48 53 -121 184 -299 269 -366 59 -46 99 -49 127 -9 20 27 20 27
-1 57 -34 48 -86 92 -143 122 -52 27 -54 29 -54 71 l0 43 31 -16 c17 -9 37
-14 46 -11 8 3 33 -7 56 -22 23 -16 61 -36 85 -45 59 -23 56 -3 -8 57 -48 45
-79 56 -109 37 -9 -6 -26 -3 -49 10 -26 14 -39 16 -49 8 -10 -9 -17 -2 -32 32
-22 49 -18 60 25 62 57 3 101 -13 143 -52 44 -41 85 -64 134 -76 27 -7 28 -6
22 25 -9 50 -22 68 -64 89 -48 25 -101 69 -101 84 0 7 24 22 52 35 l52 22 37
-25 c85 -56 140 -136 119 -174 -5 -11 -10 -27 -10 -35 0 -59 100 53 158 177
37 77 48 110 58 165 2 12 6 34 10 50 11 56 11 199 -1 266 -12 72 -12 78 -2
136 11 59 16 113 17 170 2 49 3 52 11 25 5 -16 11 -50 13 -75z m-1526 -165
c15 -72 -1 -175 -24 -152 -9 9 -14 144 -7 181 5 26 7 27 17 10 5 -11 12 -28
14 -39z m1355 -331 c-7 -3 -10 -11 -7 -18 7 -19 -27 -54 -61 -62 l-29 -7 39
46 c22 26 47 46 55 46 9 0 10 -2 3 -5z m-523 -299 c0 -25 -11 -32 -50 -31 -35
1 -42 43 -8 48 55 8 58 7 58 -17z m-719 -247 c11 -20 13 -20 24 -4 25 34 89 6
148 -66 33 -41 117 -184 117 -201 0 -4 -17 10 -37 31 -92 96 -115 71 -52 -57
35 -71 146 -244 160 -249 5 -2 9 -8 9 -14 0 -19 168 -214 290 -336 148 -150
357 -307 459 -346 124 -48 467 -34 626 25 86 32 191 140 285 295 47 77 115
162 142 178 26 16 26 16 32 -11 10 -51 -1 -95 -47 -187 -74 -148 -222 -334
-312 -391 -27 -18 -71 -37 -98 -42 -49 -11 -335 -10 -447 2 -220 22 -422 104
-583 238 -73 61 -147 135 -147 148 0 5 -4 9 -9 9 -10 0 -120 146 -173 230 -19
30 -63 107 -98 170 -35 63 -79 142 -97 175 -19 33 -38 69 -44 80 -5 11 -23 27
-38 36 -15 9 -28 22 -28 30 -5 89 -30 186 -55 216 -9 11 -14 11 -29 -3 -11
-10 -19 -15 -20 -13 -11 78 -2 101 22 57z m3990 -326 c-23 -45 -20 -82 16
-196 13 -43 27 -88 30 -100 11 -45 9 -152 -4 -183 -11 -28 -27 -121 -25 -148
0 -5 4 -38 7 -73 8 -75 2 -100 -21 -81 -18 14 -33 49 -103 221 -60 151 -62
163 -23 152 63 -17 88 -13 106 17 26 44 13 82 -43 126 -69 55 -90 110 -64 173
22 55 97 126 136 129 4 1 -1 -16 -12 -37z m-3624 -47 c66 -78 134 -197 121
-211 -3 -2 -25 26 -50 63 -49 74 -130 220 -104 188 9 -11 24 -29 33 -40z
m1873 -220 c0 -8 -4 -15 -9 -15 -5 0 -12 -9 -16 -19 -5 -18 -27 -31 -63 -37
-7 -1 -17 6 -22 17 -8 15 -6 21 14 34 13 9 34 18 46 20 13 2 25 7 28 10 10 10
22 5 22 -10z m-1545 -191 c69 -41 105 -56 105 -44 0 6 -4 10 -8 10 -5 0 -14
11 -20 24 -20 46 6 48 88 10 249 -118 305 -134 455 -131 90 2 107 5 168 34 37
18 65 28 62 22 -4 -5 -1 -17 6 -25 10 -12 6 -20 -22 -45 -58 -53 -109 -82
-142 -82 -30 0 -126 24 -172 43 -11 5 -49 19 -85 31 -36 12 -69 26 -75 29 -9
6 -59 20 -132 35 -13 3 -31 7 -40 10 -10 2 -29 7 -43 11 -17 4 -7 -6 27 -30
29 -20 57 -36 62 -36 5 0 11 -4 13 -9 3 -8 215 -96 255 -107 10 -2 52 -13 93
-24 135 -35 212 -32 223 9 12 46 144 69 219 38 41 -17 88 -62 88 -83 0 -23
-21 -26 -71 -11 -72 22 -135 13 -194 -28 -96 -66 -258 -77 -424 -28 -68 19
-110 49 -118 83 -9 38 -22 51 -43 40 -33 -18 -108 37 -261 191 -52 53 -106
111 -119 130 l-23 34 39 -36 c21 -20 62 -49 89 -65z m3296 -877 c-8 -8 -11 -7
-11 4 0 20 13 34 18 19 3 -7 -1 -17 -7 -23z m-1459 -227 c-12 -16 -22 -32 -22
-35 0 -3 -25 -45 -55 -92 -30 -48 -55 -91 -55 -95 0 -19 -20 -6 -26 17 -10 39
32 113 104 183 65 64 94 76 54 22z m-5 -182 c1 -13 14 -34 29 -47 23 -19 34
-22 67 -17 l39 7 -23 -32 c-52 -73 -208 -226 -338 -332 -28 -23 -81 -34 -81
-17 0 6 49 62 110 123 60 62 118 124 130 139 18 24 50 89 50 103 0 13 -40 3
-66 -17 l-29 -22 25 29 c14 16 31 36 38 43 7 8 20 25 29 38 19 29 18 29 20 2z
m-172 -156 c19 11 19 10 5 -8 -19 -24 -129 -133 -160 -158 -12 -10 -40 -21
-61 -23 -35 -5 -40 -3 -49 21 -23 61 -16 74 58 96 37 11 87 36 112 54 38 28
47 31 60 20 11 -9 20 -10 35 -2z"/>
<path d="M3473 6818 c-58 -15 -64 -101 -9 -126 64 -29 117 67 64 115 -19 16
-29 19 -55 11z"/>
<path d="M4390 5636 c0 -2 8 -10 18 -17 15 -13 16 -12 3 4 -13 16 -21 21 -21
13z"/>
<path d="M9562 7834 c-30 -13 -57 -112 -38 -142 3 -6 2 -13 -4 -17 -6 -4 -7
-11 -4 -17 4 -6 6 -29 6 -50 -2 -31 4 -44 25 -64 14 -13 34 -24 45 -24 21 0
77 27 80 38 9 42 11 163 4 211 -3 19 -12 41 -20 49 -14 15 -73 24 -94 16z"/>
<path d="M4773 7797 c-70 -31 25 -102 149 -113 46 -4 73 18 58 46 -13 23 -104
68 -150 73 -19 3 -45 0 -57 -6z"/>
<path d="M5106 7642 c-7 -12 63 -77 154 -146 41 -31 81 -61 87 -66 7 -6 84
-59 170 -117 170 -115 401 -276 418 -291 6 -5 24 -17 40 -28 17 -10 32 -21 35
-24 3 -3 23 -19 45 -35 22 -17 42 -32 45 -35 24 -26 118 -82 139 -83 23 -2 26
1 23 28 -4 49 -119 270 -166 320 -24 25 -45 45 -48 45 -3 0 -17 -11 -31 -24
-21 -20 -32 -23 -59 -17 -44 11 -114 43 -163 77 -188 129 -380 257 -380 254 0
-2 -20 9 -45 25 -62 39 -231 125 -246 125 -7 0 -15 -4 -18 -8z"/>
<path d="M4822 7550 c7 -11 18 -20 25 -20 7 0 13 -4 13 -10 0 -5 84 -66 188
-134 373 -247 497 -303 515 -234 5 16 -3 30 -30 54 -38 35 -214 144 -231 144
-6 0 -12 4 -14 9 -5 13 -345 178 -403 196 -69 21 -78 20 -63 -5z"/>
<path d="M4590 7481 c0 -14 69 -72 150 -126 41 -27 77 -53 80 -56 3 -3 12 -9
20 -12 8 -4 27 -15 42 -25 14 -9 48 -30 75 -46 105 -64 417 -283 470 -331 6
-5 26 -21 44 -35 107 -80 204 -176 474 -469 33 -35 107 -110 164 -165 183
-178 251 -250 251 -266 0 -30 62 -108 178 -227 18 -18 34 -33 36 -33 2 0 2 17
0 38 -1 20 -5 69 -8 108 -8 104 -24 144 -63 158 -40 14 -115 77 -213 180 -225
237 -288 299 -326 317 -98 47 -318 349 -288 396 15 24 58 20 103 -10 44 -30
174 -157 261 -256 160 -183 216 -240 334 -345 l78 -70 -6 105 c-7 146 -21 178
-72 159 -15 -6 -33 -9 -39 -6 -7 2 -34 35 -61 73 -117 165 -405 403 -596 493
-79 38 -108 38 -150 1 -39 -34 -103 -62 -123 -55 -17 7 -20 30 -5 39 20 12 9
44 -25 73 -29 26 -168 114 -215 135 -8 4 -40 21 -70 38 -111 61 -367 188 -420
208 -60 23 -80 26 -80 12z"/>
<path d="M3495 7472 c-16 -2 -59 -12 -95 -22 -36 -11 -69 -21 -75 -22 -5 -1
-18 -9 -27 -17 -30 -26 -3 -35 95 -35 114 0 174 16 189 50 6 13 9 26 6 29 -11
11 -64 20 -93 17z"/>
<path d="M2710 7388 c-85 -46 -264 -165 -355 -235 -5 -5 -44 -33 -85 -63 -41
-30 -84 -62 -95 -71 -11 -9 -63 -52 -115 -95 -199 -163 -336 -322 -423 -489
-53 -102 -201 -443 -197 -453 10 -20 -39 -115 -75 -147 -16 -13 -88 -162 -92
-188 -2 -11 -7 -25 -12 -31 -9 -11 -72 -259 -70 -273 1 -4 0 -10 -1 -13 -1 -3
-3 -21 -5 -40 -2 -19 -7 -63 -10 -97 -12 -108 -6 -96 97 167 33 85 65 166 71
180 5 14 11 30 13 35 10 42 232 549 291 667 71 140 175 308 245 393 61 75 333
340 413 403 101 79 92 73 145 101 149 80 359 243 342 266 -12 17 -25 14 -82
-17z"/>
<path d="M9562 7353 c-30 -12 -57 -110 -38 -141 3 -6 2 -13 -4 -17 -6 -4 -7
-11 -4 -17 4 -6 6 -29 6 -50 -3 -77 83 -117 133 -62 23 25 30 45 25 69 -1 6
-1 30 0 55 2 61 2 60 -4 100 -9 55 -61 84 -114 63z"/>
<path d="M2803 7261 c-38 -24 -111 -113 -119 -148 -16 -62 43 -54 113 16 59
59 94 128 72 142 -20 13 -30 11 -66 -10z"/>
<path d="M9562 6873 c-30 -12 -57 -110 -38 -141 3 -6 2 -13 -4 -17 -6 -4 -7
-11 -4 -17 4 -6 6 -29 6 -50 -2 -47 30 -82 77 -86 46 -3 90 48 81 93 -1 5 -1
26 -1 45 2 102 0 123 -10 141 -16 30 -70 47 -107 32z"/>
<path d="M9558 6385 c-15 -8 -29 -24 -33 -34 -6 -21 -8 -151 -1 -191 2 -14 4
-31 5 -38 2 -20 65 -46 95 -38 41 10 76 106 52 144 -3 6 -2 13 4 17 6 4 8 10
5 15 -3 5 -7 30 -9 56 -6 75 -55 103 -118 69z"/>
<path d="M2108 6081 c-18 -22 -52 -77 -76 -124 -64 -125 -93 -154 -138 -135
-62 25 -74 21 -143 -50 -64 -66 -115 -150 -144 -237 -21 -62 5 -135 36 -103
15 15 58 94 84 153 24 57 74 137 97 158 28 25 70 19 74 -11 4 -25 -33 -145
-55 -179 -8 -12 -14 -24 -14 -28 1 -3 -6 -22 -15 -43 -20 -48 -35 -86 -36 -92
0 -3 -9 -30 -20 -60 -33 -95 -48 -207 -44 -330 4 -128 17 -180 41 -160 8 6 14
15 13 18 -1 4 4 21 11 37 14 33 36 141 46 220 3 28 8 61 10 75 3 14 7 41 10
60 7 43 62 240 79 283 14 34 27 69 28 77 1 3 15 34 31 70 44 97 100 189 146
240 69 76 99 158 69 188 -23 23 -56 13 -90 -27z"/>
<path d="M9558 5905 c-15 -8 -29 -24 -33 -34 -6 -21 -8 -151 -1 -191 2 -14 4
-31 5 -38 0 -7 16 -20 35 -29 29 -14 39 -14 66 -3 33 14 49 35 49 66 0 10 0
46 1 79 1 78 -6 126 -22 142 -21 20 -70 24 -100 8z"/>
<path d="M1083 5533 c-45 -57 -112 -186 -119 -231 -7 -43 7 -62 31 -42 8 7 15
9 15 4 0 -4 19 12 41 36 66 71 97 164 82 244 -7 35 -14 33 -50 -11z"/>
<path d="M9558 5425 c-35 -19 -40 -37 -40 -151 0 -69 5 -101 16 -119 17 -25
64 -40 95 -30 23 7 53 49 52 73 0 9 0 40 0 67 0 28 0 55 0 60 0 33 -13 80 -25
94 -20 22 -64 24 -98 6z"/>
<path d="M2193 5367 c-23 -26 -131 -280 -133 -312 0 -3 0 -6 -1 -7 -3 -10 -8
-39 -14 -73 -4 -22 -7 -42 -8 -45 -3 -15 16 -50 27 -50 23 0 69 81 112 195 50
135 60 171 69 240 8 62 -19 89 -52 52z"/>
<path d="M1494 5306 c-19 -13 -21 -24 -19 -94 4 -125 -25 -168 -121 -178 -43
-4 -75 -18 -63 -27 2 -2 22 -17 43 -33 66 -49 108 -179 121 -379 3 -49 8 -103
11 -120 3 -16 7 -48 9 -70 9 -90 29 -163 65 -241 33 -69 59 -98 61 -68 3 33 2
48 -5 99 -4 28 -9 66 -11 85 -3 19 -7 46 -10 60 -17 79 0 275 31 349 8 19 19
52 23 73 11 48 -11 85 -78 133 -57 41 -57 28 -9 210 27 104 38 188 26 200 -13
13 -56 14 -74 1z"/>
<path d="M1334 5272 c-39 -25 -40 -82 -3 -132 26 -35 60 -37 66 -5 7 37 6 90
-2 118 -7 27 -36 36 -61 19z"/>
<path d="M769 5206 c-53 -28 -67 -48 -89 -133 -10 -43 7 -68 42 -60 45 12 145
130 150 178 3 20 -2 23 -37 26 -22 2 -52 -3 -66 -11z"/>
<path d="M951 5019 c-11 -19 -24 -50 -27 -69 -3 -19 -9 -51 -13 -70 -8 -38 -6
-275 2 -355 15 -140 26 -182 40 -158 29 49 55 623 30 668 -10 17 -13 16 -32
-16z"/>
<path d="M1123 4988 c-11 -18 -16 -47 -17 -90 -1 -21 -4 -38 -8 -38 -4 0 -5
-9 -3 -21 2 -12 7 -56 9 -99 6 -84 20 -135 36 -125 15 9 32 82 36 156 1 36 4
70 5 75 1 5 1 11 0 14 -1 3 -4 26 -6 52 -5 71 -31 108 -52 76z"/>
<path d="M9558 4948 c-33 -28 -46 -58 -38 -93 4 -19 6 -36 3 -39 -12 -11 -3
-119 11 -141 18 -28 74 -42 103 -26 29 15 52 68 44 100 -4 14 -6 37 -4 51 6
49 3 101 -8 121 -18 35 -82 50 -111 27z"/>
<path d="M719 4778 c-7 -13 -14 -32 -15 -43 -2 -11 -5 -34 -8 -50 -11 -70 -17
-135 -21 -216 -4 -76 -3 -88 15 -107 37 -40 61 -24 74 48 12 70 20 177 20 262
0 71 -4 91 -19 108 -23 26 -31 25 -46 -2z"/>
<path d="M1706 4762 c-3 -5 -8 -22 -11 -38 -6 -32 -7 -402 0 -449 2 -16 7 -74
10 -128 4 -54 8 -111 10 -125 2 -15 6 -61 10 -102 3 -41 8 -82 10 -90 2 -8 7
-35 10 -60 9 -71 16 -100 24 -100 18 0 31 -48 56 -200 8 -44 27 -114 72 -262
26 -83 41 -118 52 -119 77 -6 90 -2 96 34 5 23 -3 56 -25 117 -39 104 -51 140
-84 255 -41 138 -46 158 -49 180 -1 11 -5 25 -9 30 -3 6 -9 33 -13 60 -5 28
-9 55 -11 60 -6 28 -20 102 -28 158 -3 20 -8 52 -11 70 -3 17 -7 57 -9 87 -3
30 -7 75 -10 100 -3 25 -8 88 -11 140 -3 53 -7 107 -10 120 -2 14 -6 48 -9 75
-8 74 -24 153 -36 175 -12 22 -16 24 -24 12z"/>
<path d="M1254 4739 c-20 -34 10 -217 55 -331 25 -64 49 -7 45 109 -2 72 -12
116 -41 185 -15 35 -47 56 -59 37z"/>
<path d="M1833 4628 c-20 -34 33 -121 70 -116 32 4 36 74 7 106 -23 24 -64 29
-77 10z"/>
<path d="M9558 4468 c-33 -28 -46 -58 -38 -93 4 -19 6 -36 3 -39 -11 -11 -3
-119 11 -141 17 -25 64 -40 96 -30 36 12 68 108 46 143 -3 6 -2 13 4 17 6 4 8
10 5 15 -3 5 -7 30 -9 56 -3 35 -10 53 -26 66 -26 21 -69 24 -92 6z"/>
<path d="M1144 4429 c-4 -13 -9 -31 -12 -39 -2 -8 -5 -116 -6 -240 -3 -221 6
-316 32 -342 15 -15 40 39 49 104 14 100 6 366 -12 438 -4 14 -7 32 -7 40 0 9
-8 26 -18 39 l-18 24 -8 -24z"/>
<path d="M915 4216 c-10 -24 -13 -64 -10 -147 5 -112 6 -130 19 -198 14 -72
28 -62 45 34 6 33 13 69 15 81 33 166 22 264 -29 264 -20 0 -29 -8 -40 -34z"/>
<path d="M1453 4114 c-12 -23 -7 -134 6 -147 15 -15 34 33 34 86 1 57 -24 93
-40 61z"/>
<path d="M9562 3994 c-30 -13 -57 -112 -38 -142 3 -6 2 -13 -4 -17 -6 -4 -7
-11 -4 -17 4 -6 6 -29 6 -50 -2 -31 4 -44 25 -64 14 -13 34 -24 45 -24 21 0
77 27 80 38 9 42 11 163 4 211 -3 19 -12 41 -20 49 -14 15 -73 24 -94 16z"/>
<path d="M1965 3939 c-4 -5 -9 -33 -11 -60 -5 -73 21 -118 59 -98 28 16 47 68
35 99 -19 51 -67 86 -83 59z"/>
<path d="M1599 3918 c0 -7 -2 -20 -4 -28 -2 -8 -6 -28 -9 -45 -24 -115 -26
-418 -4 -431 4 -3 8 -14 8 -24 0 -29 47 -79 69 -73 33 8 47 129 27 223 -8 38
-15 72 -21 105 -3 17 -7 41 -10 55 -6 29 -11 64 -20 135 -10 76 -15 95 -25 95
-6 0 -10 -6 -11 -12z"/>
<path d="M1341 3901 c-11 -7 -12 -27 -8 -94 4 -46 9 -91 11 -98 4 -13 13 -82
21 -164 1 -16 5 -52 9 -80 3 -27 9 -70 12 -95 8 -67 27 -140 36 -140 4 0 8 44
9 98 1 53 3 165 4 247 3 119 0 164 -14 218 -19 74 -55 123 -80 108z"/>
<path d="M6612 3808 c-10 -13 -9 -117 2 -193 7 -51 27 -155 42 -215 3 -14 9
-41 14 -60 4 -19 12 -47 18 -61 6 -15 8 -29 5 -32 -3 -3 -1 -12 3 -19 5 -7 9
-19 10 -26 7 -40 60 -187 75 -205 l18 -22 -4 23 c-2 13 0 33 4 45 5 12 5 34 0
49 -4 16 -3 30 2 34 5 3 7 9 5 13 -3 4 -8 59 -11 122 -3 63 -7 128 -9 146 -37
264 -123 462 -174 401z"/>
<path d="M1999 3668 c-3 -27 6 -75 22 -118 20 -56 79 -164 97 -178 46 -35 20
112 -39 230 -32 63 -77 100 -80 66z"/>
<path d="M1173 3592 c-10 -27 -9 -126 1 -192 7 -47 17 -110 22 -135 3 -11 7
-36 10 -55 13 -82 87 -349 115 -416 35 -83 70 -140 84 -136 14 3 6 206 -9 230
-3 5 -8 24 -10 43 -10 69 -17 104 -22 119 -3 8 -8 26 -10 40 -21 114 -102 401
-134 473 -26 58 -36 64 -47 29z"/>
<path d="M9562 3514 c-30 -14 -57 -112 -38 -142 3 -6 2 -13 -4 -17 -6 -4 -7
-11 -4 -17 4 -6 6 -29 6 -50 -3 -77 83 -117 133 -62 23 25 30 45 25 69 -1 6
-1 30 0 55 2 61 2 60 -4 99 -3 19 -12 41 -19 48 -15 15 -75 26 -95 17z"/>
<path d="M1665 3233 c-4 -16 -9 -39 -11 -53 -3 -14 -7 -34 -9 -45 -3 -11 -10
-44 -16 -72 -7 -29 -17 -53 -23 -53 -6 0 -24 20 -39 44 -30 48 -54 72 -63 63
-9 -8 -9 -117 0 -172 8 -52 31 -105 50 -117 43 -29 120 20 111 71 -17 95 -17
96 9 124 21 23 29 26 46 17 19 -10 37 -52 32 -76 -1 -6 5 -27 13 -47 17 -41
50 -56 84 -37 36 19 31 60 -19 167 -33 71 -132 210 -151 212 -4 1 -10 -11 -14
-26z"/>
<path d="M2149 3188 c0 -7 -2 -21 -4 -30 -2 -10 1 -20 6 -24 5 -3 7 -9 4 -14
-3 -5 1 -23 10 -40 8 -16 15 -32 15 -35 1 -14 16 -43 38 -72 13 -18 21 -33 17
-33 -4 0 -3 -6 3 -12 5 -7 15 -46 22 -86 13 -79 44 -164 92 -252 17 -30 38
-68 47 -85 9 -16 21 -33 26 -37 6 -4 6 -8 2 -8 -4 0 -3 -6 3 -12 5 -7 30 -41
55 -75 62 -84 148 -167 203 -195 26 -13 58 -33 72 -45 44 -40 54 -28 24 27
-15 28 -31 50 -36 50 -4 0 -8 5 -8 11 0 6 -14 24 -30 41 -70 70 -124 161 -200
336 -28 64 -55 124 -61 132 -5 8 -12 22 -15 30 -10 29 -115 235 -140 275 -13
22 -27 47 -31 55 -14 31 -89 110 -104 110 -5 0 -9 -6 -10 -12z"/>
<path d="M5624 3155 c-8 -21 -17 -65 -18 -99 -4 -82 -38 -146 -77 -146 -20 0
-60 -49 -77 -95 -43 -112 -54 -364 -19 -418 20 -31 61 -36 76 -9 5 9 9 33 10
52 3 152 18 225 51 255 19 17 20 17 29 -8 11 -27 12 -257 2 -257 -3 0 -6 -21
-7 -48 -2 -66 -10 -126 -39 -282 -30 -162 -30 -181 -7 -210 16 -20 21 -21 41
-11 20 11 39 43 47 81 2 8 6 69 9 135 3 66 8 131 10 145 3 14 8 52 11 85 4 33
8 63 10 66 16 27 24 531 11 664 -13 131 -35 167 -63 100z"/>
<path d="M9562 3033 c-30 -12 -57 -110 -38 -141 3 -6 2 -13 -4 -17 -6 -4 -7
-11 -4 -17 4 -6 6 -29 6 -50 -2 -52 34 -88 85 -84 46 3 82 48 73 91 -1 5 -1
26 -1 45 2 102 0 123 -10 141 -16 30 -70 47 -107 32z"/>
<path d="M2022 3011 c-9 -6 -13 -25 -10 -62 2 -30 5 -56 8 -59 3 -3 18 -45 35
-95 43 -131 204 -445 326 -635 173 -271 221 -370 201 -415 -7 -14 -15 -25 -20
-25 -26 0 -80 72 -250 330 -68 102 -126 190 -130 196 -8 11 -12 18 -61 107
-61 110 -108 212 -131 282 -42 131 -86 183 -138 164 -34 -13 -35 -29 -6 -110
26 -72 130 -289 172 -359 11 -19 33 -57 48 -85 14 -27 29 -52 33 -55 6 -5 47
-64 114 -164 34 -51 43 -77 46 -132 1 -7 53 -65 116 -130 63 -65 124 -136 135
-158 21 -43 17 -60 -26 -103 -20 -20 -22 -27 -13 -53 6 -16 33 -48 60 -71 39
-32 55 -40 74 -35 23 6 25 11 26 69 1 75 -1 134 -7 204 -3 43 -1 54 14 62 24
13 80 -13 162 -75 36 -28 94 -72 130 -99 86 -66 259 -169 323 -194 59 -21 112
-33 172 -35 56 -3 73 3 81 27 7 21 -1 30 -76 91 -21 17 -22 19 -6 28 22 12 96
15 156 5 34 -5 54 -17 85 -50 63 -65 180 -101 327 -99 97 1 132 34 78 73 -34
25 -66 31 -200 36 -63 3 -119 8 -123 13 -5 4 20 25 55 45 34 20 66 42 70 49 9
14 -22 22 -84 21 -27 0 -48 2 -48 5 0 3 -48 5 -108 5 -153 0 -202 16 -207 69
-5 43 25 59 114 60 44 1 83 4 87 8 15 16 -9 40 -63 65 -74 34 -189 39 -222 9
-11 -10 -19 -21 -17 -25 2 -3 -2 -21 -9 -39 -13 -28 -18 -32 -53 -32 -40 0
-182 64 -182 82 0 4 -7 8 -15 8 -8 0 -15 4 -15 8 0 13 -125 91 -171 107 -23 9
-52 12 -63 9 -37 -12 -73 -6 -119 19 -79 41 -147 112 -154 159 -5 32 -53 119
-133 238 -97 146 -122 193 -164 310 -57 160 -165 390 -200 427 -6 7 -17 9 -24
4z m988 -1341 c98 -42 279 -136 305 -158 11 -9 28 -28 37 -41 16 -22 16 -26 1
-55 -25 -48 -43 -57 -75 -38 -16 9 -28 22 -28 28 0 7 -14 24 -31 38 -26 22
-37 25 -70 20 -32 -5 -46 -2 -82 21 -75 50 -227 217 -227 251 0 8 15 5 48 -11
26 -12 81 -37 122 -55z"/>
<path d="M5006 2786 c-36 -55 -54 -95 -79 -171 -22 -70 -39 -133 -38 -150 0
-2 -4 -19 -9 -36 -23 -80 -30 -244 -12 -282 27 -57 9 -58 -95 -7 -115 57 -185
70 -221 42 -18 -14 -25 -33 -32 -86 -9 -74 -37 -126 -99 -185 -76 -71 -191
-132 -276 -145 -50 -8 -107 -24 -121 -33 -41 -28 -48 -147 -14 -218 21 -44 27
-48 87 -60 39 -8 49 -20 58 -66 23 -124 62 -36 41 93 -9 55 -10 62 -16 68 -3
3 -10 14 -16 25 -6 11 -21 22 -34 23 -20 3 -22 8 -17 43 11 80 55 92 100 29
51 -73 96 -65 200 35 89 84 134 107 219 109 72 2 100 18 136 78 13 23 19 25
36 16 12 -6 25 -17 29 -24 14 -25 35 -15 50 25 17 41 46 148 52 190 2 14 6 35
9 47 2 12 7 45 11 75 3 30 8 65 10 79 6 35 16 106 30 220 9 79 17 134 21 155
4 20 14 74 20 107 5 28 -12 30 -30 4z m-282 -692 c34 -33 11 -109 -50 -168
-51 -49 -80 -47 -77 8 4 64 67 176 99 176 7 0 20 -7 28 -16z"/>
<path d="M6614 2766 c-11 -12 -17 -31 -31 -111 -10 -52 -9 -372 0 -381 10 -10
27 8 32 35 2 12 6 30 9 39 8 27 21 122 31 221 4 39 7 133 6 168 -1 28 -31 46
-47 29z"/>
<path d="M1605 2713 c-21 -21 -15 -57 25 -138 29 -61 69 -132 83 -150 5 -5 27
-39 51 -75 51 -80 166 -249 183 -270 19 -24 167 -230 178 -248 6 -10 12 -19
16 -22 3 -3 21 -27 40 -55 38 -55 134 -155 148 -155 32 0 5 69 -75 193 -24 37
-44 70 -44 72 0 3 -7 13 -14 22 -8 10 -45 61 -83 113 -63 89 -96 131 -134 169
-55 56 -133 216 -149 306 -11 64 -28 106 -55 143 -21 28 -88 92 -96 92 -17 0
-24 2 -41 11 -11 6 -22 4 -33 -8z"/>
<path d="M9558 2545 c-15 -8 -29 -24 -33 -34 -6 -21 -8 -151 -1 -191 2 -14 4
-31 5 -38 2 -20 65 -46 95 -38 41 10 76 106 52 144 -3 6 -2 13 4 17 6 4 8 10
5 15 -3 5 -7 30 -9 56 -6 75 -55 103 -118 69z"/>
<path d="M1431 2524 c-25 -32 -26 -52 -5 -98 22 -45 56 -61 73 -35 16 26 16
125 1 144 -19 23 -46 18 -69 -11z"/>
<path d="M1613 2368 c-19 -24 -10 -50 29 -91 42 -45 53 -42 63 15 6 31 3 41
-19 62 -27 28 -58 33 -73 14z"/>
<path d="M5404 2242 c-40 -26 -71 -147 -79 -307 -4 -103 -12 -135 -51 -200
-23 -39 -27 -58 -26 -111 2 -123 43 -267 85 -302 30 -25 66 -24 92 2 40 41 29
88 -33 132 -73 53 -78 103 -23 262 22 61 38 112 36 112 -3 0 -1 10 4 23 27 72
46 315 28 370 -9 28 -15 31 -33 19z"/>
<path d="M1602 2143 c-27 -5 -52 -41 -47 -68 2 -11 4 -23 4 -26 1 -4 16 -29
34 -55 18 -27 43 -76 57 -109 13 -32 42 -93 66 -135 23 -41 50 -90 60 -109 11
-19 27 -44 37 -55 9 -11 17 -23 17 -28 0 -4 10 -18 22 -30 15 -15 37 -22 80
-26 83 -6 84 -8 -46 233 -11 22 -23 42 -26 45 -3 3 -16 25 -29 50 -14 25 -37
65 -52 90 -15 25 -38 64 -50 88 -12 23 -26 42 -31 42 -4 0 -8 6 -8 13 0 6 -15
28 -33 48 -23 26 -38 34 -55 32z"/>
<path d="M2890 2073 c-16 -20 -21 -39 -19 -73 4 -68 16 -82 65 -74 51 7 71 -2
141 -72 77 -76 133 -100 161 -72 16 16 15 63 -2 96 -23 44 -168 172 -195 172
-6 0 -11 4 -11 8 0 9 -55 31 -94 38 -18 3 -30 -3 -46 -23z"/>
<path d="M6630 2075 c-7 -14 -17 -25 -22 -25 -4 0 -8 -5 -8 -11 0 -6 -8 -23
-18 -37 -54 -78 -132 -251 -132 -293 l0 -23 17 24 c54 77 92 100 94 58 3 -53
7 -70 18 -81 6 -6 11 -8 11 -4 0 3 7 32 16 64 9 32 18 74 20 93 3 19 13 86 23
148 13 81 14 112 6 112 -6 0 -18 -11 -25 -25z"/>
<path d="M1784 2051 c9 -90 77 -153 115 -107 25 30 -53 146 -98 146 -18 0 -20
-5 -17 -39z"/>
<path d="M9558 2065 c-15 -8 -29 -24 -33 -34 -6 -21 -8 -151 -1 -191 2 -14 4
-31 5 -38 0 -7 16 -20 35 -29 29 -14 39 -14 66 -3 33 14 49 35 49 66 0 10 0
46 1 79 1 78 -6 126 -22 142 -21 20 -70 24 -100 8z"/>
<path d="M1944 1836 c-10 -26 3 -71 40 -134 81 -137 239 -298 420 -427 71 -50
111 -114 88 -137 -24 -24 -172 73 -315 205 -23 20 -47 37 -54 37 -7 0 -13 5
-13 10 0 13 -107 66 -116 58 -27 -28 113 -168 352 -355 93 -73 189 -151 214
-173 108 -98 190 -139 302 -150 111 -10 123 -16 172 -80 25 -34 92 -80 116
-80 55 0 65 45 24 106 -57 86 -138 143 -349 243 -241 115 -257 125 -248 147 6
16 40 12 113 -12 63 -21 329 -153 350 -174 3 -3 17 -11 33 -19 15 -8 27 -18
27 -23 0 -4 5 -8 11 -8 21 0 118 -86 140 -125 31 -54 46 -69 99 -95 32 -16 65
-23 115 -25 95 -3 135 22 143 90 5 43 29 65 71 65 39 0 127 -21 155 -37 16 -9
16 -10 0 -24 -9 -8 -37 -25 -62 -39 -68 -37 -67 -52 5 -45 32 3 70 8 83 11 49
10 149 5 184 -10 26 -11 42 -28 58 -60 22 -47 68 -79 97 -69 44 16 99 96 125
182 21 73 10 108 -46 137 -32 16 -34 11 -14 -37 17 -43 5 -90 -30 -118 -44
-34 -75 -27 -130 28 -74 75 -171 127 -334 179 -93 29 -158 42 -280 56 -19 3
-62 7 -95 10 -58 6 -86 10 -177 21 -79 11 -125 30 -218 92 -25 17 -108 64
-185 105 -215 114 -251 136 -370 227 -107 82 -171 144 -258 251 -122 150 -228
235 -243 196z"/>
<path d="M3743 1717 c-36 -16 -15 -74 40 -107 40 -25 73 -25 86 -3 26 47 -74
134 -126 110z"/>
<path d="M4582 1710 c-69 -28 -302 -232 -302 -264 0 -31 50 -29 125 5 17 8 33
17 36 22 3 5 12 9 20 11 19 3 109 69 135 98 27 32 42 77 34 107 -7 29 -17 33
-48 21z"/>
<path d="M9558 1585 c-35 -19 -40 -37 -40 -151 0 -69 5 -101 16 -119 17 -25
64 -40 95 -30 23 7 53 49 52 73 0 9 0 40 0 67 0 62 0 64 -5 95 -2 14 -4 31 -5
37 -1 14 -52 43 -73 43 -7 -1 -25 -7 -40 -15z"/>
<path d="M6435 1478 c-22 -12 -167 -157 -203 -203 -43 -56 -73 -114 -74 -144
-1 -38 -22 -58 -68 -66 -69 -12 -130 -58 -184 -140 -43 -66 -31 -71 60 -25 59
29 198 162 332 317 85 98 192 246 192 264 0 12 -31 11 -55 -3z"/>
<path d="M2808 1402 c-22 -4 -24 -45 -3 -62 9 -7 13 -15 11 -17 -6 -6 51 -56
81 -72 45 -23 93 -3 93 40 0 24 -12 38 -65 71 -48 30 -94 46 -117 40z"/>
<path d="M5420 1216 c-25 -7 -58 -20 -75 -29 -16 -9 -38 -19 -47 -23 -10 -3
-18 -10 -18 -15 0 -5 -4 -9 -10 -9 -14 0 -80 -63 -80 -77 0 -20 -73 -91 -170
-163 -18 -14 -48 -36 -65 -50 -18 -14 -43 -32 -55 -40 -12 -8 -33 -23 -45 -32
-13 -10 -28 -18 -33 -18 -6 0 -12 -4 -14 -9 -6 -17 -231 -150 -281 -166 -117
-38 -280 -178 -246 -212 20 -20 72 7 124 62 l50 53 53 -11 c39 -8 67 -8 110 1
54 11 155 54 178 76 7 6 25 20 40 31 16 11 76 58 135 105 144 114 154 121 202
148 23 13 69 51 102 86 105 110 220 286 197 299 -4 3 -27 -1 -52 -7z"/>
<path d="M3114 1207 c-27 -14 -32 -25 -26 -53 14 -72 169 -137 325 -136 116 1
99 75 -33 141 -49 25 -76 35 -130 48 -40 9 -119 10 -136 0z"/>
<path d="M9558 1108 c-33 -28 -46 -58 -38 -93 4 -19 6 -36 3 -39 -12 -11 -3
-119 11 -141 18 -28 74 -42 103 -26 29 15 52 68 44 100 -4 14 -6 37 -4 51 6
49 3 101 -8 121 -18 35 -82 50 -111 27z"/>
<path d="M2130 1045 c0 -32 44 -128 84 -182 56 -76 99 -105 226 -148 123 -43
182 -77 173 -101 -8 -22 15 -34 44 -23 70 26 126 14 158 -35 42 -63 165 -59
165 6 0 25 -29 43 -191 121 -181 86 -254 132 -406 257 -7 6 -15 10 -19 10 -3
0 -19 9 -36 21 -39 28 -165 89 -183 89 -8 0 -15 -7 -15 -15z"/>
<path d="M4009 972 c-15 -2 -36 -14 -49 -27 -30 -32 -14 -60 53 -90 42 -18 58
-20 87 -13 48 13 72 37 68 66 -6 47 -77 75 -159 64z"/>
<path d="M5224 783 c-73 -73 -136 -133 -141 -133 -6 0 -22 -11 -37 -24 -35
-29 -152 -99 -274 -161 -132 -69 -159 -97 -129 -139 17 -23 46 -24 98 -1 38
16 139 80 176 110 7 6 18 15 25 21 38 30 158 115 193 134 75 43 174 90 189 90
8 0 17 4 20 9 3 5 21 12 40 15 39 8 47 30 41 119 -8 133 -35 128 -201 -40z"/>
<path d="M9558 628 c-33 -28 -46 -58 -38 -93 4 -19 6 -36 3 -39 -11 -11 -3
-119 11 -141 17 -25 64 -40 96 -30 36 12 68 108 46 143 -3 6 -2 13 4 17 6 4 7
11 4 17 -4 6 -6 29 -6 50 2 31 -4 44 -25 64 -28 26 -70 31 -95 12z"/>
<path d="M3955 535 c-30 -30 -31 -54 -4 -89 26 -33 53 -33 84 -1 30 30 31 54
4 89 -26 33 -53 33 -84 1z"/>
<path d="M3057 535 c-22 -21 -10 -46 35 -73 36 -22 187 -64 200 -56 12 8 9 57
-5 76 -40 52 -195 88 -230 53z"/>
<path d="M5004 416 c-37 -16 -57 -62 -41 -92 26 -48 74 -47 122 3 29 30 35 42
30 63 -8 31 -5 29 -46 34 -19 3 -48 -1 -65 -8z"/>
<path d="M3432 411 c-13 -3 -23 -9 -23 -13 1 -5 1 -12 1 -17 0 -13 63 -32 123
-38 78 -7 187 -9 187 -3 0 3 16 6 36 7 43 2 61 15 42 30 -35 27 -302 52 -366
34z"/>
<path d="M3930 334 c-65 -17 -150 -71 -169 -107 -18 -34 -7 -75 23 -83 13 -3
40 2 61 10 34 14 58 32 148 106 20 16 47 62 47 80 0 14 -44 12 -110 -6z"/>
<path d="M3321 283 c-22 -42 -16 -106 12 -139 19 -22 28 -25 54 -20 29 7 51
36 47 64 -1 6 -2 18 -3 26 -2 21 -66 86 -84 86 -9 0 -20 -8 -26 -17z"/>
<path d="M4264 230 c-104 -15 -230 -69 -247 -107 -13 -30 -7 -35 52 -41 101
-9 345 101 304 138 -15 13 -58 17 -109 10z"/>
</g>
</svg>
